<svg id="Capa_1" enable-background="new 0 0 512.001 512.001" height="512" viewBox="0 0 512.001 512.001" width="512" xmlns="http://www.w3.org/2000/svg"><g><path d="m2.683 505.555c2.798 4.028 7.397 6.445 12.319 6.445h481.996c4.922 0 9.521-2.417 12.319-6.445 2.812-4.043 3.457-9.199 1.729-13.813-5.845-15.63-16.772-29.341-21.211-34.497-2.842-3.325-7.002-5.244-11.382-5.244h-444.906c-4.38 0-8.54 1.919-11.382 5.244-4.438 5.156-15.366 18.867-21.211 34.497-1.728 4.614-1.084 9.77 1.729 13.813z"/><path d="m60 241h91v181h-91z"/><path d="m211 241h90v181h-90z"/><path d="m361 241h91v181h-91z"/><path d="m32.467 206.584c2.816 2.827 6.735 4.417 10.611 4.417.002 0 .005-.002.007-.002s.005.002.007-.008h425.816c.002.01.005.008.007.008s.005.002.007.002c3.876 0 7.795-1.589 10.611-4.417 3.052-3.052 25.862-26.807 32.466-55.583h-511.999c6.605 28.776 29.414 52.531 32.467 55.583z"/><path d="m502.453 121-239.744-119.418c-4.219-2.109-9.199-2.109-13.418 0l-239.744 119.418z"/></g></svg>