<svg id="Capa_1" enable-background="new 0 0 512 512" height="512" viewBox="0 0 512 512" width="512" xmlns="http://www.w3.org/2000/svg"><g><path d="m404.45 118.58h-109.79v-109.8z"/><path d="m279.66 148.58c-8.28 0-15-6.72-15-15v-133.58h-249.66c-8.28 0-15 6.72-15 15v482c0 8.28 6.72 15 15 15h296.47c-33.72-26.18-55.46-67.1-55.46-112.99 0-78.85 64.15-143 143-143 4.8 0 9.54.24 14.22.7v-108.13zm-120.05 193.42h-84.61c-8.28 0-15-6.72-15-15s6.72-15 15-15h84.61c8.29 0 15 6.72 15 15s-6.71 15-15 15zm70.49-70h-155.1c-8.28 0-15-6.72-15-15s6.72-15 15-15h155.1c8.28 0 15 6.72 15 15s-6.72 15-15 15zm0-70h-155.1c-8.28 0-15-6.72-15-15s6.72-15 15-15h155.1c8.28 0 15 6.72 15 15s-6.72 15-15 15z"/><path d="m399 286.01c-62.31 0-112.99 50.68-112.99 112.99s50.68 113 112.99 113 113-50.69 113-113-50.69-112.99-113-112.99zm58.2 93.03-61.14 61.14c-2.93 2.93-6.77 4.4-10.61 4.4s-7.68-1.47-10.6-4.4l-34.05-34.04c-5.85-5.85-5.85-15.35 0-21.21 5.86-5.86 15.36-5.86 21.22 0l23.43 23.44 16.82-16.82 33.72-33.72c5.86-5.86 15.35-5.86 21.21 0s5.86 15.35 0 21.21z"/></g></svg>