<svg xmlns="http://www.w3.org/2000/svg" version="1.1" xmlns:xlink="http://www.w3.org/1999/xlink" width="512" height="512" x="0" y="0" viewBox="0 0 64 64" style="enable-background:new 0 0 512 512" xml:space="preserve"><g><path d="m55.23 22.1-14.01-5.34-3.54 4.67c0 1.96-.35 3.92-1.04 5.81-.75 2.07-1.89 3.94-3.32 5.52l3.61 12.6 6.73-1.93-3.86-13.46 9.61-2.76 3.86 13.46L60 38.74z" opacity="1" data-original="#000000"></path><path d="m26.62 7.68.2-.2c.12-.12.25-.22.38-.33.09-.08.18-.15.28-.23.12-.09.25-.18.37-.27.12-.08.23-.16.35-.23l.36-.21c.2-.11.39-.22.6-.32a8.977 8.977 0 0 1 6.9-.3c2.32.84 4.11 2.58 5.1 4.73l-.62-.23c-.83-.32-1.77-.05-2.31.66l-2.35 3.11c.07.12.13.25.19.38.63 1.36 1.08 2.79 1.33 4.23l3.12-4.11 16.35 6.23 1.43-3.74-14.67-5.59c-.91-3.45-3.44-6.3-6.89-7.55-2.77-1.01-5.76-.88-8.43.37-.15.07-.28.15-.43.22-.02 0-.04 0-.06.02-.08.04-.16.1-.24.14-.15.08-.3.17-.44.26-.15.09-.29.19-.43.28-.15.11-.31.21-.46.33-.12.09-.23.18-.34.28-.16.13-.31.26-.46.4-.09.09-.18.18-.28.27-.15.15-.31.31-.45.47-.06.06-.11.13-.16.19-7.44-2.01-15.31 1.97-18 9.34-2.23 6.13-.2 12.77 4.56 16.7l-1.8 4.95 1.2 2.56-2.56 1.2 1.2 2.56-2.56 1.2 1.2 2.56-2.56 1.2-1.23 3.39 2.65 7.35 6.75-3.93 7.14-19.61c6.18.05 12-3.72 14.23-9.86 2.73-7.5-.91-15.75-8.14-18.88zm-.4 7.26c-.57 1.56-2.29 2.36-3.85 1.79s-2.36-2.29-1.79-3.85c.32-.87 1-1.49 1.8-1.78-.18.65-.33 1.31-.39 1.98-.05.55.36 1.04.91 1.09s1.04-.36 1.09-.91c.07-.73.23-1.45.47-2.15 1.53.58 2.32 2.28 1.76 3.83z" opacity="1" data-original="#000000"></path></g></svg>