<svg id="svg14514" height="512" viewBox="0 0 16.933333 16.933334" width="512" xmlns="http://www.w3.org/2000/svg" xmlns:svg="http://www.w3.org/2000/svg"><g id="layer1" transform="translate(0 -280.067)"><path id="path6139" d="m13.672032 280.63561c-.63333.1697-1.06704.83851-.83509 1.4795l2.00556 5.54126c.14073-.11597.31845-.18241.50436-.18242.30107-.006.62486-.005.91519.0129l-1.12603-5.99033c-.10975-.5837-.66325-.93509-1.22421-.90021-.0801.005-.16063.0181-.23978.0393zm.35088 1.01852c.14613 0 .26459.11845.26459.26458s-.11846.26458-.26459.26458c-.14612 0-.26458-.11846-.26458-.26458s.11846-.26458.26458-.26458zm-6.1887693 1.87379c-.6583201.2867-1.05904.90499-1.26297 1.47743l-.2196201.61702h3.1915302c.0893-.24201.21302-.45116.5829102-.66611l2.585889-1.63195-.37259-1.02939c-.0695-.19213-.0978-.38511-.09352-.57309zm-1.74718 2.62361c-.4363699 0-.7447799.36952-.79116.76378l.006-.0331-.4805899 1.91564h-3.4979801c-.43515993 0-.79477994.35808-.79477994.79324v1.85363c0 .43516.35962001.79272.79477994.79272h8.9963503c.4352 0 .80456-.35685.79478-.79892v-1.84743c-.00026-.0335-.007-.0666-.0196-.0977l-1.05833-2.64635c-.057-.14241-.1218403-.29766-.2387504-.4377-.1169099-.14004-.31096-.25786-.5348499-.25786zm.52607 1.05885h.003.7932398v2.11718h-1.2169794c-.1747502.00027-.30186-.16577-.2558-.33434l.4237498-1.58595c.0304-.11495.13379-.19549.25269-.19689zm1.3255001 0h.8495598c.1064401-.00005.2025402.0637.2439102.16175l1.0020102 2.38125c.0141.0326.0215.0678.0217.10335v1.05885c-.000529.14531-.1182401.26297-.2635503.26355h-1.588021c-.0885.00027-.1713701-.0437-.2206599-.1173l-.045-.0677zm7.4083292.79272c-.084 0-.16302.0399-.2129.10748l-2.38074 3.17397c-.1311.17417-.007.42328.21084.42375h1.58802c1.02147 0 1.85105-.83009 1.85105-1.85157v-1.58802c.000529-.14612-.11743-.26503-.26355-.26562zm-13.4983993 1.8495c.14855-.002.26942.11913.26769.26768v.7953c.008.36079-.53727.36079-.52917 0v-.7953c-.002-.14612.11536-.26596.26148-.26768zm1.0588499 0c.1485501-.002.2694202.11913.2676901.26768v.7953c.008.36048-.53695.36048-.52917 0v-.7953c-.002-.14612.1153601-.26596.2614799-.26768zm1.0567802 0c.14916-.003.2709998.11851.2692401.26768v.7953c-.008.34495-.5214202.34495-.5291702 0v-.7953c-.00201-.14552.1144199-.26512.2599301-.26768zm-1.5823301 2.91403c-1.02147 0-1.85362995.83061-1.85362995 1.85208s.83215995 1.85105 1.85362995 1.85105h8.2015703c1.021479 0 1.851049-.82958 1.851049-1.85105s-.82957-1.85208-1.851049-1.85208zm.5296901 1.05885c.4352399-.00001.7926999.358.7927099.79323 0 .43524-.35746.79479-.7927099.79479-.4352501-.00001-.7953001-.35955-.7953001-.79479 0-.43523.36007-.79323.7953001-.79323zm2.3807299 0c.4352401 0 .7927099.358.7927199.79323 0 .43524-.3574798.79478-.7927199.79479-.4352499 0-.7953-.35955-.7953-.79479 0-.43523.3600601-.79324.7953-.79323zm2.3807301 0c.4352398-.00001.7927099.358.79272.79323 0 .43524-.3574701.79479-.79272.79479-.4352502 0-.7927102-.35955-.7927102-.79479.00001-.43523.3574701-.79324.7927102-.79323zm2.3807402 0c.43524-.00001.7953.358.7953.79323 0 .43524-.36005.79479-.7953.79479-.4352502 0-.7927203-.35955-.7927203-.79479.0000101-.43523.3574799-.79324.7927203-.79323z" font-variant-ligatures="normal" font-variant-position="normal" font-variant-caps="normal" font-variant-numeric="normal" font-variant-alternates="normal" font-feature-settings="normal" text-indent="0" text-align="start" text-decoration-line="none" text-decoration-style="solid" text-decoration-color="rgb(0,0,0)" text-transform="none" text-orientation="mixed" white-space="normal" shape-padding="0" isolation="auto" mix-blend-mode="normal" solid-color="rgb(0,0,0)" solid-opacity="1" vector-effect="none"/></g></svg>