<svg id="Capa_1" enable-background="new 0 0 512 512" height="512" viewBox="0 0 512 512" width="512" xmlns="http://www.w3.org/2000/svg"><path d="m136 242c-74.439 0-135 60.561-135 135s60.561 135 135 135 135-60.561 135-135-60.561-135-135-135zm59.606 118.606-70 70c-2.928 2.929-6.767 4.394-10.606 4.394s-7.678-1.465-10.606-4.394l-30-30c-5.858-5.857-5.858-15.355 0-21.213 5.857-5.857 15.355-5.857 21.213 0l19.393 19.394 59.394-59.394c5.857-5.857 15.355-5.857 21.213 0 5.857 5.858 5.857 15.356-.001 21.213z"/><path d="m396 130c-8.284 0-15-6.716-15-15v-115h-215c-24.813 0-45 20.187-45 45v167.689c4.942-.448 9.943-.689 15-.689 51.128 0 96.897 23.376 127.186 60h162.814c8.284 0 15 6.716 15 15s-6.716 15-15 15h-143.052c9.376 18.296 15.422 38.565 17.363 60h125.689c8.284 0 15 6.716 15 15s-6.716 15-15 15h-125.689c-4.486 49.539-30.954 92.826-69.553 120h235.242c24.813 0 45-20.187 45-45v-337zm30 82h-220c-8.284 0-15-6.716-15-15s6.716-15 15-15h220c8.284 0 15 6.716 15 15s-6.716 15-15 15z"/><path d="m411 8.783v91.217h91.211z"/></svg>