<?xml version="1.0" encoding="iso-8859-1"?>
<!-- Generator: Adobe Illustrator 19.0.0, SVG Export Plug-In . SVG Version: 6.00 Build 0)  -->
<svg version="1.1" id="Capa_1" xmlns="http://www.w3.org/2000/svg" xmlns:xlink="http://www.w3.org/1999/xlink" x="0px" y="0px"
	 viewBox="0 0 511.999 511.999" style="enable-background:new 0 0 511.999 511.999;" xml:space="preserve">
<g>
	<g>
		<path d="M322.38,296.277H189.65c-4.525,0-8.195,3.668-8.195,8.194v13.677c0,3.961,1.573,7.747,4.369,10.543l24.173,24.188
			l-16.557,82.801c-3.757,18.829,1.063,38.138,13.237,52.977c12.159,14.839,30.144,23.343,49.337,23.343s37.177-8.505,49.337-23.343
			c12.174-14.839,16.994-34.149,13.237-52.977l-16.557-82.801l24.173-24.188c2.796-2.796,4.17-4.594,4.17-8.554v-10.695
			C330.374,304.917,326.905,296.277,322.38,296.277z"/>
	</g>
</g>
<g>
	<g>
		<path d="M434.941,59.647h-14.912V44.735C420.029,19.982,400.047,0,375.294,0H77.058C52.304,0,32.323,19.982,32.323,44.735v59.647
			c0,24.753,19.981,44.735,44.735,44.735H91.97v59.647c0,16.471,13.352,29.823,29.824,29.823c16.471,0,29.823-13.352,29.823-29.823
			v-44.735c0-8.235,6.677-14.912,14.912-14.912c8.235,0,14.912,6.677,14.912,14.912v14.912c0,16.471,13.352,29.823,29.824,29.823
			c16.471,0,29.823-13.352,29.823-29.823v-29.824h134.206c24.753,0,44.735-19.982,44.735-44.735V89.471h14.912
			c8.352,0,14.912,6.56,14.912,14.912v37.279c0,6.56-4.475,12.526-10.736,14.314l-165.52,47.121
			c-19.087,5.667-32.509,23.263-32.509,42.946v19.267h29.823v-19.266c0-6.56,4.475-12.526,10.736-14.314l165.52-47.121
			c19.087-5.666,32.509-23.263,32.509-42.946v-37.28C479.676,79.629,459.695,59.647,434.941,59.647z"/>
	</g>
</g>
<g>
</g>
<g>
</g>
<g>
</g>
<g>
</g>
<g>
</g>
<g>
</g>
<g>
</g>
<g>
</g>
<g>
</g>
<g>
</g>
<g>
</g>
<g>
</g>
<g>
</g>
<g>
</g>
<g>
</g>
</svg>
