<svg id="Layer_1" enable-background="new 0 0 48 48" height="512" viewBox="0 0 48 48" width="512" xmlns="http://www.w3.org/2000/svg"><g id="Line"><path d="m21.1 29.6c-.2.4-.1.9.3 1.1.2.2.4.3.7.3.2 0 .3 0 .5-.1l6.4-3.7-5.2-3.9z"/><path d="m30.5 25.8 14-16.6c.5-.6.8-1.4.7-2.3-.2-1.4-2-2.7-2-2.7-1.2-.7-2.7-.9-4.2.6l-14.1 16.8z"/><path d="m8 31v-26c-4.6 0-6 4.4-6 6v23c1.6-2.3 6-3 6-3z"/><path d="m45 16h-3.7l-10 11.9c-.2.3-.5.5-.8.7l-7 4c-1.1.6-2.5.5-3.5-.4s-1.3-2.2-.8-3.4l3-7c.1-.2 4.8-5.8 4.8-5.8h-17v17h-2c-3.2.2-5.8 2.8-6 6.1 0 4.7 2.9 6.9 6.5 6.9h36.5c.6 0 1-.4 1-1v-28c0-.6-.4-1-1-1z"/></g></svg>