<svg id="Capa_1" enable-background="new 0 0 512 512" height="512" viewBox="0 0 512 512" width="512" xmlns="http://www.w3.org/2000/svg"><g><path d="m232.073 400.666h105.5v38.6h-105.5z"/><path d="m454.06 33.35h-48.767v44.881l48.767 36.878z"/><path d="m39.236 251.71v257.391h95.087v-69.836h67.75v-68.599h67.75v-69.358h67.75v-68.978h104.745l-186.411-139.93z"/><path d="m164.323 469.265h105.5v39.835h-105.5z"/><path d="m299.823 469.265h105.5v39.835h-105.5z"/><path d="m0 193.828v30.925h25.256l230.837-169.726 226.104 169.726h29.803v-28.216l-256.062-193.638z"/><path d="m435.323 469.265h37.44v39.835h-37.44z"/><path d="m367.573 262.33h105.19v38.979h-105.19z"/><path d="m299.823 331.308h105.5v39.357h-105.5z"/><path d="m367.573 400.666h105.19v38.6h-105.19z"/><path d="m435.323 331.308h37.44v39.357h-37.44z"/></g></svg>