<svg height="682pt" viewBox="-21 -40 682.66715 682" width="682pt" xmlns="http://www.w3.org/2000/svg"><path d="m532.808594 66.425781c0-10.359375-8.398438-18.761719-18.765625-18.761719h-40.558594l59.324219 59.28125zm0 0"/><path d="m176.289062 224.042969h375.28125c7.59375 0 14.433594-4.570313 17.339844-11.582031 2.90625-7.015626 1.292969-15.085938-4.070312-20.453126l-187.644532-187.515624c-7.324218-7.324219-19.203124-7.324219-26.527343 0l-187.640625 187.519531c-5.371094 5.363281-6.976563 13.433593-4.074219 20.449219 2.902344 7.011718 9.746094 11.582031 17.335937 11.582031zm0 0"/><path d="m98.851562 330.035156h-80.085937c-10.363281 0-18.765625 8.398438-18.765625 18.765625v232.515625c0 10.359375 8.402344 18.761719 18.765625 18.761719h80.085937c10.363282 0 18.765626-8.402344 18.765626-18.761719v-232.515625c0-10.367187-8.402344-18.765625-18.765626-18.765625zm0 0"/><path d="m589.511719 415.585938-223.980469 58.390624c-3.0625.796876-6.210938 1.207032-9.378906 1.210938-17.902344.027344-51.699219.023438-105.941406.007812-10.351563 0-18.738282-8.390624-18.738282-18.742187s8.394532-18.746094 18.746094-18.746094h97.363281c20.726563 0 37.53125-16.800781 37.53125-37.53125 0-20.726562-16.804687-37.527343-37.53125-37.527343h-192.441406v210.679687c53.179687.007813 186.183594.023437 217.570313-.050781 4.40625-.007813 8.773437-.796875 12.902343-2.324219l226.179688-83.601563c49.972656-19.390624 27.914062-85.066406-22.28125-71.765624zm0 0"/><path d="m532.8125 391.589844v-130.015625h-337.757812v63.542969h152.527343c41.386719 0 75.058594 33.671874 75.058594 75.058593 0 7.253907-1.035156 14.265625-2.964844 20.898438zm0 0"/></svg>