<svg xmlns="http://www.w3.org/2000/svg" version="1.1" xmlns:xlink="http://www.w3.org/1999/xlink" width="512" height="512" x="0" y="0" viewBox="0 0 350.913 350.913" style="enable-background:new 0 0 512 512" xml:space="preserve"><g><path d="M323.016.912a1.36 1.36 0 0 0-1.72-.84 156.037 156.037 0 0 1-28 6.44 99.345 99.345 0 0 1-34-.92 89.193 89.193 0 0 0-25.88-2 49.558 49.558 0 0 0-20.76 5.92 37.342 37.342 0 0 0-6.56 4.68 36.007 36.007 0 0 0-5.28 5.92 38.011 38.011 0 0 0-4 6.8 41.19 41.19 0 0 0-2.48 7.64 52.788 52.788 0 0 0 0 20.96 67.662 67.662 0 0 0 5.28 16.08 94.565 94.565 0 0 0-28 43.64 86.717 86.717 0 0 0-20-24.92 67.78 67.78 0 0 0 5.08-16 52.788 52.788 0 0 0 0-20.96 41.34 41.34 0 0 0-2.48-7.64 38.011 38.011 0 0 0-4-6.8 36.007 36.007 0 0 0-5.28-5.92 37.43 37.43 0 0 0-6.56-4.68 49.525 49.525 0 0 0-20.76-5.92 89.203 89.203 0 0 0-26.04 2.24 99.32 99.32 0 0 1-34 .92 156.018 156.018 0 0 1-28-6.4 1.36 1.36 0 0 0-1.68.84c-.083.26-.083.54 0 .8a285.505 285.505 0 0 0 16.52 48.64 139.566 139.566 0 0 0 21.16 34.52 73.73 73.73 0 0 0 14.96 13.36 48.215 48.215 0 0 0 16 7 39.991 39.991 0 0 0 14.4.56 43.198 43.198 0 0 0 14.04-4.64 50.492 50.492 0 0 0 5.32-3.28 55.572 55.572 0 0 0 5-4 1.36 1.36 0 0 0 0-1.88h-.2a97.093 97.093 0 0 0-15.08-9.04c-5.12-2.52-10.28-4.64-15.36-6.76a194.149 194.149 0 0 1-22.8-10.64 75.521 75.521 0 0 1-20.24-16.56 5.84 5.84 0 0 1 8.88-7.56c10.56 12.36 24.4 18.08 38.64 24 5.76 2.4 11.56 4.8 17.24 7.6a111.988 111.988 0 0 1 13.68 8 78.61 78.61 0 0 1 21.08 28 111.516 111.516 0 0 0-54.88 22.92c4 14.12 14.04 22.88 23.28 30.8 11.56 9.24 21.64 17.76 22.08 33.44.2 11.68-5.48 18.68-11.8 26.4a49.675 49.675 0 0 0-11.44 20 71.75 71.75 0 0 0-.24 14.84c.44 11.24.92 24.28-3.28 34.12a21.881 21.881 0 0 1-20.44 14.64 111.724 111.724 0 0 0 43.08 22.08 29.16 29.16 0 0 1 12.96-28.68c10.48-7.68 28-2.48 46.16 2.96 13.44 4 27.44 8 36.6 6.76a112.238 112.238 0 0 0 44-102.36c-10.48-14.52-23.68-22.64-35.04-29.64-21.84-13.44-37.96-23.36-26.96-58.16a111.365 111.365 0 0 0-41.8-11.16c6.44-22.96 16.4-36.64 27.76-46.08a112.322 112.322 0 0 1 13.68-8c5.68-2.8 11.48-5.2 17.24-7.6 14.24-5.92 28-11.64 38.64-24a5.84 5.84 0 0 1 8.88 7.56 75.574 75.574 0 0 1-20.24 16.56 194.149 194.149 0 0 1-22.8 10.64c-5.12 2.12-10.24 4.24-15.36 6.76a96.813 96.813 0 0 0-15.08 9.04h-.2a1.36 1.36 0 0 0 0 1.88 55.397 55.397 0 0 0 5 4 50.357 50.357 0 0 0 5.32 3.24 43.12 43.12 0 0 0 14.04 4.64 39.99 39.99 0 0 0 14.4-.56 48.215 48.215 0 0 0 16-7 73.717 73.717 0 0 0 14.92-13.36 139.54 139.54 0 0 0 21.2-34.52 285.52 285.52 0 0 0 16.2-48.56c.083-.26.083-.54 0-.8z" fill="#ffffff" opacity="1" data-original="#000000"></path><path d="M137.136 215.472c0-9.04-8-15.72-16.64-23.2-9.48-8-20-17.04-25.56-31.2-38.39 39.823-41.958 101.708-8.4 145.68 15.8 6.44 22.48 4 25-1.88 2.96-6.92 2.52-18.2 2.16-28a76.038 76.038 0 0 1 .64-18.72 61.317 61.317 0 0 1 14.2-25.52c4.6-5.6 8.72-10.68 8.6-17.16zM202.176 335.352c-14.8-4.4-28.88-8.6-33.6-5.16a16.68 16.68 0 0 0-6.04 20c4.276.484 8.577.724 12.88.72a111.64 111.64 0 0 0 46.76-10.12c-6.52-1.44-13.24-3.44-20-5.44zM237.816 145.592c-5.4 21.88 6.2 29.04 21.6 38.52a190.954 190.954 0 0 1 20.64 14.08 112.48 112.48 0 0 0-42.24-52.6z" fill="#ffffff" opacity="1" data-original="#000000"></path></g></svg>