<svg xmlns="http://www.w3.org/2000/svg" version="1.1" xmlns:xlink="http://www.w3.org/1999/xlink" width="512" height="512" x="0" y="0" viewBox="0 0 682.667 682" style="enable-background:new 0 0 512 512" xml:space="preserve" class=""><g><path d="M532.809 66.426c0-10.36-8.399-18.762-18.766-18.762h-40.559l59.325 59.281zM176.29 224.043h375.28c7.594 0 14.434-4.57 17.34-11.582a18.773 18.773 0 0 0-4.07-20.453L377.195 4.492c-7.324-7.324-19.203-7.324-26.527 0l-187.64 187.52a18.76 18.76 0 0 0 13.261 32.031zM98.852 330.035H18.766C8.402 330.035 0 338.434 0 348.801v232.515c0 10.36 8.402 18.762 18.766 18.762h80.086c10.363 0 18.765-8.402 18.765-18.762V348.801c0-10.367-8.402-18.766-18.765-18.766zM589.512 415.586l-223.98 58.39a37.415 37.415 0 0 1-9.38 1.212c-17.902.027-51.699.023-105.941.007-10.352 0-18.738-8.39-18.738-18.742s8.394-18.746 18.746-18.746h97.363c20.727 0 37.531-16.8 37.531-37.531 0-20.727-16.804-37.528-37.531-37.528H155.141v210.68c53.18.008 186.183.024 217.57-.05a37.38 37.38 0 0 0 12.902-2.325l226.18-83.601c49.973-19.391 27.914-85.067-22.281-71.766zm0 0" fill="#ffffff" opacity="1" data-original="#000000"></path><path d="M532.813 391.59V261.574H195.055v63.543h152.527c41.387 0 75.059 33.672 75.059 75.059a74.701 74.701 0 0 1-2.965 20.898zm0 0" fill="#ffffff" opacity="1" data-original="#000000"></path></g></svg>