<svg id="Layer_1" data-name="Layer 1" xmlns="http://www.w3.org/2000/svg" viewBox="0 0 2000 1000"><defs><style>.cls-1{fill:#082b40;fill-rule:evenodd;}.cls-2{fill:#4dbe92;}</style></defs><path class="cls-1" d="M824.46,472.37q3.63,0,8.32.45T842,474c3,.51,5.8,1,8.32,1.52a50.78,50.78,0,0,1,5.6,1.36l-4.84,24.52a94.45,94.45,0,0,0-11.05-2.87,96.86,96.86,0,0,0-19.83-1.67,73.68,73.68,0,0,0-15.59,1.67q-7.73,1.67-10.14,2.27V633.12H766.33V482.36a191.92,191.92,0,0,1,24.83-6.81,159.42,159.42,0,0,1,33.3-3.18Zm58.73,160.75V403l28.15-4.84v80.53a95.42,95.42,0,0,1,16.8-4.7,96.52,96.52,0,0,1,17.71-1.66q18.78,0,31.19,5.3a48.8,48.8,0,0,1,19.83,14.83,57.49,57.49,0,0,1,10.44,22.86,132.49,132.49,0,0,1,3,29.36v88.4H982.18V550.78a134.74,134.74,0,0,0-2-24.83q-2-10.29-6.51-16.65a25.8,25.8,0,0,0-12.11-9.23q-7.58-2.88-18.77-2.88a76.47,76.47,0,0,0-9.39.61c-3.23.4-6.3.86-9.23,1.36s-5.55,1.06-7.87,1.67a46.87,46.87,0,0,0-5,1.51V633.12Zm149.25,29.37a53.37,53.37,0,0,0,8.63,2.88,42.16,42.16,0,0,0,10.44,1.36q16.65,0,26-7.42t17-24.07q-19.08-36.33-35.57-77a670.55,670.55,0,0,1-27.4-82.5h30.27q3.33,13.62,8,29.36t10.44,32.4q5.76,16.65,12.41,33.3t13.93,32.09q11.51-31.79,20-63t16.05-64.18h29.06q-10.9,44.51-24.22,85.52T1118.72,638a162,162,0,0,1-12.57,23.46,70.51,70.51,0,0,1-14.38,16.2,52.56,52.56,0,0,1-17.71,9.38,75.45,75.45,0,0,1-22.25,3,54.79,54.79,0,0,1-7-.46q-3.63-.45-7.11-1.21c-2.32-.5-4.44-1.06-6.36-1.66a30.74,30.74,0,0,1-4.09-1.52l5.15-22.7Zm158.33-109a93.94,93.94,0,0,1,5.6-32.54,76.23,76.23,0,0,1,41.93-44.66q15.14-6.66,34.51-6.66a111.58,111.58,0,0,1,23.31,2.27,114.29,114.29,0,0,1,20.59,6.51l-9.38,36a114.79,114.79,0,0,0-13.93-4.24,72.86,72.86,0,0,0-17-1.82q-20,0-29.82,12.42t-9.84,32.69q0,21.5,9.23,33.3t32.24,11.81a110.54,110.54,0,0,0,17.56-1.51,74.72,74.72,0,0,0,17.26-4.85l6.35,36.94a105.25,105.25,0,0,1-19.67,5.75,130.15,130.15,0,0,1-26,2.42q-21.79,0-37.54-6.51a70.71,70.71,0,0,1-25.88-17.71,69.1,69.1,0,0,1-14.84-26.49,112.4,112.4,0,0,1-4.69-33.15ZM1403,601.64q6.66,0,12.71-.3a91.36,91.36,0,0,0,9.69-.91V566.22a80.09,80.09,0,0,0-8.17-1.21,89.47,89.47,0,0,0-10-.61,88.46,88.46,0,0,0-12,.76,31.26,31.26,0,0,0-9.84,2.87,17,17,0,0,0-6.66,5.76,16.06,16.06,0,0,0-2.42,9.08q0,10.59,7.11,14.68t19.53,4.09Zm-3.63-132q20,0,33.3,4.55t21.34,13a47.85,47.85,0,0,1,11.35,20.59,101.5,101.5,0,0,1,3.33,26.94v93.85q-9.67,2.13-26.94,5T1400,636.45a132.84,132.84,0,0,1-28-2.72,60.82,60.82,0,0,1-21.65-8.93,40.93,40.93,0,0,1-13.92-16.2q-4.85-10-4.85-24.52,0-13.92,5.6-23.61a43.09,43.09,0,0,1,15-15.44,67.74,67.74,0,0,1,21.49-8.33,121,121,0,0,1,25.13-2.57,144,144,0,0,1,15.59.75,69.59,69.59,0,0,1,11.05,2v-4.24q0-11.5-7-18.46t-24.22-7a154.07,154.07,0,0,0-22.7,1.67,97.31,97.31,0,0,0-19.38,4.69l-5.75-36.33q3.93-1.2,9.84-2.57t12.86-2.42q7-1.07,14.69-1.82t15.59-.76Zm155.91,131.09q12.4,0,17.56-2.42c3.43-1.62,5.14-4.74,5.14-9.39q0-5.45-6.66-9.53T1551,570.15a204.66,204.66,0,0,1-19.22-8.17,56.71,56.71,0,0,1-14.69-10.14,41,41,0,0,1-9.38-14.08q-3.33-8.18-3.33-19.68,0-22.4,16.65-35.42t45.71-13a146.18,146.18,0,0,1,27.85,2.58,128.64,128.64,0,0,1,21.19,5.6l-7.87,35.12a166.28,166.28,0,0,0-17.1-4.85A93.17,93.17,0,0,0,1570.1,506q-21.19,0-21.19,11.81a12.08,12.08,0,0,0,.91,4.84,10.2,10.2,0,0,0,3.63,4.09,50.6,50.6,0,0,0,7.42,4.24,127.19,127.19,0,0,0,12,5,184.93,184.93,0,0,1,24.52,10.85,58.7,58.7,0,0,1,15.29,11.51,35.81,35.81,0,0,1,7.87,13.77,61.07,61.07,0,0,1,2.27,17.51q0,23.54-17.71,35.67T1555,637.36q-21.18,0-35.26-3.63t-19.53-6.06l7.57-36.63a148.25,148.25,0,0,0,23.61,7.12,115.21,115.21,0,0,0,23.92,2.57Zm162,.91q6.66,0,12.72-.3a91.4,91.4,0,0,0,9.68-.91V566.22a80.09,80.09,0,0,0-8.17-1.21,89.47,89.47,0,0,0-10-.61,88.57,88.57,0,0,0-12,.76,31.26,31.26,0,0,0-9.84,2.87,17,17,0,0,0-6.66,5.76,16.06,16.06,0,0,0-2.42,9.08q0,10.59,7.11,14.68t19.53,4.09Zm-3.63-132q20,0,33.3,4.55t21.34,13a47.86,47.86,0,0,1,11.36,20.59,101.5,101.5,0,0,1,3.33,26.94v93.85q-9.69,2.13-27,5t-41.78,2.87a132.91,132.91,0,0,1-28-2.72,60.69,60.69,0,0,1-21.64-8.93,40.87,40.87,0,0,1-13.93-16.2q-4.85-10-4.84-24.52,0-13.92,5.6-23.61a43.06,43.06,0,0,1,15-15.44,67.7,67.7,0,0,1,21.5-8.33,120.92,120.92,0,0,1,25.12-2.57,143.82,143.82,0,0,1,15.59.75,69.37,69.37,0,0,1,11.05,2v-4.24q0-11.5-7-18.46t-24.22-7a154.07,154.07,0,0,0-22.7,1.67,97.31,97.31,0,0,0-19.38,4.69l-5.75-36.33q3.93-1.2,9.84-2.57t12.87-2.42q7-1.07,14.68-1.82T1713.6,469.64Z"/><polygon class="cls-2" points="217.07 500.09 217.07 555.18 217.07 691.74 382.33 691.71 382.62 644.56 263.97 644.58 263.97 526.99 436.43 423.32 608.9 526.99 608.9 644.58 460.24 644.58 460.24 552.58 412.62 581.1 412.62 719.36 457.84 691.74 655.79 691.74 655.79 555.18 655.79 500.09 436.43 369.43 217.07 500.09"/><polygon class="cls-2" points="436.43 280.64 217.07 412.91 217.07 466.39 436.43 334.53 655.79 466.39 655.79 412.91 436.43 280.64"/></svg>