<?xml version="1.0" encoding="UTF-8"?>
<svg id="Layer_1" data-name="Layer 1" xmlns="http://www.w3.org/2000/svg" viewBox="0 0 1576.29 362.97">
  <defs>
    <style>
      .cls-1 {
        fill: #fff;
        stroke-width: 0px;
      }
    </style>
  </defs>
  <g>
    <polygon class="cls-1" points="340.41 104.73 340.41 146.22 170.21 41.48 0 146.23 0 104.73 170.21 0 340.41 104.73"/>
    <polygon class="cls-1" points="340.41 183.8 340.41 322.76 187.91 322.76 152.5 345.52 152.5 226.25 187.93 203.49 187.93 287.46 304.98 287.46 304.98 203.48 170.21 120.55 35.43 203.5 35.43 287.46 114.91 287.46 114.91 322.76 0 322.76 0 183.8 170.21 79.07 304.98 162 340.41 183.8"/>
  </g>
  <g>
    <path class="cls-1" d="M551.69,300.67V58.03h35.65v97.37s16.78-29.06,57.82-25.17c0,0,57.82-.9,61.42,65.01v105.42h-34.75v-98.53s-5.59-42.04-40.55-39.05c0,0-41.95-1.6-43.74,41.35v96.23h-35.85Z"/>
    <path class="cls-1" d="M721.85,330.82h41.35s28.56-.3,13.58-40.05l-62.12-160.79h38.95l49.73,138.62,45.94-138.62h36.95l-68.71,190.75s-10.39,44.54-55.73,42.14l-39.75.09-.2-32.15Z"/>
    <path class="cls-1" d="M1012.76,237.01h37.75s-8.69,63.62-79.1,63.62c0,0-84.49,4.42-84.49-85.72,0,0-1.5-86.01,85.99-86.01,0,0,68.31-1.47,77.6,63.33h-38.65s-5.49-33.19-41.85-32.2c0,0-45.34-1.57-45.94,53.41,0,0-2.4,55.18,46.34,56.36,0,0,31.36,2.16,42.34-32.79Z"/>
    <path class="cls-1" d="M1229.29,274.17s-7.9-2.61-7.9-11.42v-77.18s-.75-56.12-70.39-56.12c0,0-72.8-3.1-72.8,56.12h32.94s1.05-28.58,38.64-27.97c0,0,30.73-2.2,35.21,29.31v14.56h-52.56s-59.93-3.37-59.18,48.04c0,0-4.96,52.21,59.63,51.14,0,0,40,2,56.77-23.9,0,0-1.27,23.94,26.47,23.8l22.14.13v-26.51h-8.96ZM1140.2,272.33c-32.05.13-30.7-24.6-30.7-24.6-.61-20.46,27.1-21.97,27.1-21.97h48.69c1.94,50.37-45.09,46.57-45.09,46.57Z"/>
    <path class="cls-1" d="M1352.59,181.36h35.65s3.45-52.02-70.26-52.02c0,0-64.07-4-69.06,48.63,0,0-2,37.31,38.95,44.38l51.33,9.62s16.98,6.28,14.58,20.42c0,0,.6,23.17-33.56,21.8,0,0-34.99,2.16-40.15-26.71h-35.55s-1.87,52.18,71.87,53.09c0,0,73.54,4.71,74.74-51.59,0,0,4.79-36.07-41.95-45.3l-47.14-8.25s-19.77-4.91-16.98-20.82c0,0-.4-19.24,33.96-19.44,0,0,31.56-.29,33.56,26.17Z"/>
    <path class="cls-1" d="M463.4,300.67h-36.98v-117.06c0-29.57,24.06-53.62,53.62-53.62h43.82v36.98h-43.82c-9.18,0-16.64,7.47-16.64,16.64v117.06Z"/>
    <path class="cls-1" d="M1567.33,274.17s-7.9-2.61-7.9-11.42v-77.18s-.75-56.12-70.39-56.12c0,0-72.8-3.1-72.8,56.12h32.94s1.05-28.58,38.64-27.97c0,0,30.73-2.2,35.21,29.31v14.56h-52.56s-59.93-3.37-59.18,48.04c0,0-4.96,52.21,59.63,51.14,0,0,40,2,56.77-23.9,0,0-1.27,23.94,26.47,23.8l22.14.13v-26.51h-8.96ZM1478.24,272.33c-32.05.13-30.7-24.6-30.7-24.6-.61-20.46,27.1-21.97,27.1-21.97h48.69c1.94,50.37-45.09,46.57-45.09,46.57Z"/>
  </g>
</svg>