<svg xmlns="http://www.w3.org/2000/svg" xmlns:xlink="http://www.w3.org/1999/xlink" width="2000" zoomAndPan="magnify" viewBox="0 0 1500 675.000002" height="900" preserveAspectRatio="xMidYMid meet" version="1.0"><defs><clipPath id="327249380b"><path d="M 1.109375 0 L 1498.890625 0 L 1498.890625 674 L 1.109375 674 Z M 1.109375 0 " clip-rule="nonzero"/></clipPath></defs><g clip-path="url(#327249380b)"><path fill="#ffffff" d="M 1.109375 0 L 1498.890625 0 L 1498.890625 674 L 1.109375 674 Z M 1.109375 0 " fill-opacity="1" fill-rule="nonzero"/><path fill="#ffffff" d="M 1.109375 0 L 1498.890625 0 L 1498.890625 674 L 1.109375 674 Z M 1.109375 0 " fill-opacity="1" fill-rule="nonzero"/></g><path fill="#ffffff" d="M 278.363281 421.128906 L 345.964844 421.128906 L 587.972656 137.210938 L 639.347656 195.347656 L 679.90625 193.996094 L 578.769531 75.019531 Z M 278.363281 421.128906 " fill-opacity="1" fill-rule="nonzero"/><path fill="#ffffff" d="M 519.246094 421.128906 L 586.84375 421.128906 L 828.851562 137.210938 L 880.226562 195.347656 L 920.789062 193.996094 L 819.652344 75.019531 Z M 519.246094 421.128906 " fill-opacity="1" fill-rule="nonzero"/><path fill="#ffffff" d="M 759.375 421.128906 L 826.976562 421.128906 L 1068.980469 137.210938 L 1120.359375 195.347656 L 1160.917969 193.996094 L 1059.78125 75.019531 Z M 759.375 421.128906 " fill-opacity="1" fill-rule="nonzero"/><path fill="#ffffff" d="M 195.894531 544.835938 C 195.894531 544.835938 475.757812 630.011719 891.496094 498.195312 C 1307.234375 366.375 1323.457031 388.683594 1323.457031 388.683594 C 1323.457031 388.683594 863.101562 563.089844 696.808594 593.507812 C 530.511719 623.929688 289.179688 619.875 195.894531 544.835938 Z M 195.894531 544.835938 " fill-opacity="1" fill-rule="nonzero"/></svg>