<svg xmlns="http://www.w3.org/2000/svg" xmlns:xlink="http://www.w3.org/1999/xlink" width="1500" zoomAndPan="magnify" viewBox="0 0 1125 1124.99995" height="1500" preserveAspectRatio="xMidYMid meet" version="1.0"><defs><clipPath id="ba3d61f054"><path d="M 562.5 0 C 251.839844 0 0 251.839844 0 562.5 C 0 873.160156 251.839844 1125 562.5 1125 C 873.160156 1125 1125 873.160156 1125 562.5 C 1125 251.839844 873.160156 0 562.5 0 Z M 562.5 0 " clip-rule="nonzero"/></clipPath><clipPath id="c59066baf4"><path d="M 64.296875 623 L 1103.046875 623 L 1103.046875 856 L 64.296875 856 Z M 64.296875 623 " clip-rule="nonzero"/></clipPath></defs><g clip-path="url(#ba3d61f054)"><rect x="-112.5" width="1350" fill="#f3e9d4" y="-112.499995" height="1349.99994" fill-opacity="1"/><path stroke-linecap="butt" transform="matrix(0.75, 0, 0, 0.75, 0.000025, -0.00002)" fill="none" stroke-linejoin="miter" d="M 750.000031 0.0000266667 C 335.786454 0.0000266667 -0.0000333333 335.786514 -0.0000333333 750.000091 C -0.0000333333 1164.213669 335.786454 1500.000156 750.000031 1500.000156 C 1164.213609 1500.000156 1500.000096 1164.213669 1500.000096 750.000091 C 1500.000096 335.786514 1164.213609 0.0000266667 750.000031 0.0000266667 Z M 750.000031 0.0000266667 " stroke="#586f6b" stroke-width="70" stroke-opacity="1" stroke-miterlimit="4"/></g><path fill="#586f6b" d="M 83.488281 658.800781 L 153.402344 658.800781 L 403.703125 365.152344 L 456.839844 425.28125 L 498.792969 423.882812 L 394.1875 300.828125 Z M 83.488281 658.800781 " fill-opacity="1" fill-rule="nonzero"/><path fill="#586f6b" d="M 332.625 658.800781 L 402.539062 658.800781 L 652.839844 365.152344 L 705.976562 425.28125 L 747.925781 423.882812 L 643.324219 300.828125 Z M 332.625 658.800781 " fill-opacity="1" fill-rule="nonzero"/><path fill="#586f6b" d="M 580.980469 658.800781 L 650.898438 658.800781 L 901.199219 365.152344 L 954.335938 425.28125 L 996.285156 423.882812 L 891.683594 300.828125 Z M 580.980469 658.800781 " fill-opacity="1" fill-rule="nonzero"/><g clip-path="url(#c59066baf4)"><path fill="#586f6b" d="M -1.808594 786.75 C -1.808594 786.75 287.644531 874.84375 717.628906 738.507812 C 1147.617188 602.167969 1164.394531 625.242188 1164.394531 625.242188 C 1164.394531 625.242188 688.265625 805.625 516.269531 837.089844 C 344.277344 868.550781 94.675781 864.355469 -1.808594 786.75 Z M -1.808594 786.75 " fill-opacity="1" fill-rule="nonzero"/></g></svg>