<svg xmlns="http://www.w3.org/2000/svg" xmlns:xlink="http://www.w3.org/1999/xlink" width="512" height="512" x="0" y="0" viewBox="0 0 512 512" style="enable-background:new 0 0 512 512" xml:space="preserve">  <g>    <g fill-rule="evenodd" clip-rule="evenodd">      <path d="M166.188 328.462c0 22.551-20.106 40.835-44.906 40.835s-44.907-18.284-44.907-40.835 20.106-40.835 44.907-40.835 44.906 18.284 44.906 40.835zM435.625 328.462c0 22.551-20.106 40.835-44.907 40.835s-44.906-18.284-44.906-40.835 20.105-40.835 44.906-40.835 44.907 18.284 44.907 40.835z" fill="#ffffff" opacity="1" data-original="#000000"></path>      <path d="M205.48 226.374V165.12h76.903c6.174 0 11.787 2.04 15.717 6.125l60.623 55.128H205.481zm-22.452 0H41.012l60.623-55.129c4.491-4.084 10.104-6.124 15.717-6.124h65.675zm263.823 0h-46.59c-6.174 0-11.788-2.04-15.717-6.125l-70.727-63.805c-8.42-7.657-19.647-11.741-31.996-11.741H117.352c-11.788 0-23.575 4.084-31.995 11.74L15.752 220.25c-4.49 4.084-6.736 9.188-6.736 14.801v52.577c0 22.458 20.208 40.835 44.906 40.835h5.614c0-31.138 27.505-56.149 61.746-56.149 34.24 0 61.746 25.01 61.746 56.149h145.945c0-31.138 27.505-56.149 61.746-56.149 34.24 0 61.746 25.01 61.746 56.149h28.066c12.35 0 22.453-9.189 22.453-20.418v-30.626c0-28.075-25.26-51.045-56.133-51.045z" fill="#ffffff" opacity="1" data-original="#000000"></path>    </g>  </g></svg>