<svg xmlns="http://www.w3.org/2000/svg" xmlns:xlink="http://www.w3.org/1999/xlink" width="1250" zoomAndPan="magnify" viewBox="0 0 937.5 637.499986" height="850" preserveAspectRatio="xMidYMid meet" version="1.0"><defs><filter x="0%" y="0%" width="100%" height="100%" id="b88322d945"><feColorMatrix values="0 0 0 0 1 0 0 0 0 1 0 0 0 0 1 0 0 0 1 0" color-interpolation-filters="sRGB"/></filter><mask id="03a5fc9021"><g filter="url(#b88322d945)"><rect x="-93.75" width="1125" fill="#000000" y="-63.749999" height="764.999983" fill-opacity="0.86"/></g></mask><clipPath id="fee0f9af9d"><path d="M 0.824219 0.339844 L 848.410156 0.339844 L 848.410156 596.871094 L 0.824219 596.871094 Z M 0.824219 0.339844 " clip-rule="nonzero"/></clipPath><clipPath id="0773f2ddc5"><rect x="0" width="849" y="0" height="598"/></clipPath></defs><g mask="url(#03a5fc9021)"><g transform="matrix(1, 0, 0, 1, 44, 20)"><g clip-path="url(#0773f2ddc5)"><g clip-path="url(#fee0f9af9d)"><path fill="#e91d00" d="M 839.945312 129.101562 C 839.945312 129.101562 831.648438 70.679688 806.253906 44.953125 C 774.058594 11.175781 737.878906 11.011719 721.363281 9.019531 C 602.699219 0.472656 424.785156 0.472656 424.785156 0.472656 L 424.453125 0.472656 C 424.453125 0.472656 246.539062 0.472656 127.871094 9.019531 C 111.359375 11.011719 75.179688 11.175781 42.980469 44.953125 C 17.589844 70.679688 9.289062 129.101562 9.289062 129.101562 C 9.289062 129.101562 0.824219 197.652344 0.824219 266.28125 L 0.824219 330.597656 C 0.824219 399.226562 9.289062 467.777344 9.289062 467.777344 C 9.289062 467.777344 17.589844 526.199219 42.980469 551.925781 C 75.261719 585.703125 117.582031 584.625 136.417969 588.191406 C 204.214844 594.664062 424.617188 596.738281 424.617188 596.738281 C 424.617188 596.738281 602.699219 596.492188 721.363281 587.859375 C 737.960938 585.867188 774.058594 585.703125 806.253906 551.925781 C 831.648438 526.199219 839.945312 467.777344 839.945312 467.777344 C 839.945312 467.777344 848.410156 399.144531 848.410156 330.597656 L 848.410156 266.28125 C 848.410156 197.652344 839.945312 129.101562 839.945312 129.101562 Z M 337.070312 408.523438 L 337.070312 170.347656 L 566.105469 289.851562 Z M 337.070312 408.523438 " fill-opacity="1" fill-rule="nonzero"/></g><path fill="#ffffff" d="M 337.070312 170.347656 L 337.070312 408.523438 L 566.105469 289.851562 Z M 337.070312 170.347656 " fill-opacity="1" fill-rule="nonzero"/></g></g></g></svg>