<svg xmlns="http://www.w3.org/2000/svg" version="1.1" xmlns:xlink="http://www.w3.org/1999/xlink" width="512" height="512" x="0" y="0" viewBox="0 0 512 512" style="enable-background:new 0 0 512 512" xml:space="preserve" class=""><g><path d="M121 392c66.168 0 120-61.559 120-136 0-58.672-33.477-92.715-35.188-95.742C206.673 155.5 211 141.012 211 121c0-66.168-40.371-121-90-121S30 54.832 30 121c0 19.988 4.352 34.645 5.188 39.258C33.492 163.258 0 196.254 0 256c0 74.441 54.832 136 121 136zM15 512h482c8.29 0 15-6.71 15-15s-6.71-15-15-15h-15v-30h15c8.29 0 15-6.71 15-15s-6.71-15-15-15h-15v-45c0-8.29-6.71-15-15-15h-91c-8.29 0-15 6.71-15 15v45h-15c-8.29 0-15 6.71-15 15s6.71 15 15 15h15v30h-60v-63.324A137.058 137.058 0 0 1 271 422c-10.117 0-20.125-1.273-30-3.562V482h-90v-63.324a137.058 137.058 0 0 1-60 0V482H15c-8.29 0-15 6.71-15 15s6.71 15 15 15zm376-60h61v30h-61zm0 0" fill="#26413C" opacity="1" data-original="#000000" class=""></path><path d="M237.996 153.125C265.141 191.648 271 229.75 271 256c0 48.602-19.316 93.227-49.816 123.45C236.402 387.32 253.18 392 271 392c66.168 0 120-61.559 120-136 0-59.746-33.492-92.742-35.188-95.742.836-4.613 5.188-19.27 5.188-39.258 0-66.168-40.371-121-90-121-21.465 0-40.934 10.484-56.418 27.27C230.859 52.875 241 85.832 241 121c0 12.95-1.492 23.98-3.004 32.125zm0 0" fill="#26413C" opacity="1" data-original="#000000" class=""></path></g></svg>