<svg xmlns="http://www.w3.org/2000/svg" version="1.1" xmlns:xlink="http://www.w3.org/1999/xlink" width="512" height="512" x="0" y="0" viewBox="0 0 64 64" style="enable-background:new 0 0 512 512" xml:space="preserve" class=""><g><path d="M11.58 35.828H9.942v2.782a1.03 1.03 0 0 1-2.06 0v-2.782H6.242a1.03 1.03 0 0 0-1.03 1.03v20.843a1.03 1.03 0 0 0 1.03 1.03h5.337a1.03 1.03 0 0 0 1.03-1.03V36.858a1.03 1.03 0 0 0-1.03-1.03zM58.437 43.03c-.45-.92-1.296-1.523-2.174-.969l-14.413 9.16a.946.946 0 0 1-.546.164h-9.706a1.03 1.03 0 0 1 0-2.06h5.049a22.902 22.902 0 0 1 3.039-.083 1.24 1.24 0 0 0 1.05-1.463 4.335 4.335 0 0 0-3.584-4.131l-7.212-.876c-3.997-.229-7.404-4.194-11.272-4.657a27.299 27.299 0 0 0-3.997.34V55.61l9.18 4.791a6.467 6.467 0 0 0 3.245.773l11.848-.31a7.021 7.021 0 0 0 4.327-1.71L57.798 47.11a3.653 3.653 0 0 0 .64-4.08zM38.347 35.828c.597-12.386-9.07-17.835-18.175-17.989 1.556 16.073 14.29 17.824 18.175 17.989zM40.469 34.241c.042.368-.25 1.504.062 1.587 3.884-.165 16.618-1.916 18.174-17.989-2.514.072-8.994.68-13.476 5.028-2.854 2.761-4.45 6.573-4.76 11.374zM40.201 18.787a29.684 29.684 0 0 0-2.813 5.368 18.33 18.33 0 0 1 2.05 4.348 17.646 17.646 0 0 1 11.478-11.375 17.544 17.544 0 0 0-1.247-6.006 30.527 30.527 0 0 0-3.142 1.792 26.364 26.364 0 0 0-6.326 5.873z" fill="#26413C" opacity="1" data-original="#000000"></path><path d="M35.936 22.28a37.32 37.32 0 0 1 2.132-4.029c-1.49-2.516-6.079-5.895-8.86-7.13a17.27 17.27 0 0 0-1.247 6.007 18.729 18.729 0 0 1 7.975 5.152zM39.356 16.53a29.212 29.212 0 0 1 5.265-4.8c-2.267-4.183-4.193-5.945-5.007-6.553-.742.598-2.35 2.483-4.956 6.83a21.498 21.498 0 0 1 4.698 4.524z" fill="#26413C" opacity="1" data-original="#000000"></path></g></svg>