<svg xmlns="http://www.w3.org/2000/svg" xmlns:xlink="http://www.w3.org/1999/xlink" width="2000" zoomAndPan="magnify" viewBox="0 0 1500 675.000002" height="900" preserveAspectRatio="xMidYMid meet" version="1.0"><path fill="#ffffff" d="M 352.050781 103.929688 L 400.941406 103.929688 L 467.222656 304.796875 L 428.453125 304.796875 L 412.429688 255.050781 L 335.746094 255.050781 L 320.011719 304.796875 L 284.886719 304.796875 L 352.023438 103.929688 Z M 344.46875 227.824219 L 403.738281 227.824219 L 374.257812 134.546875 L 344.496094 227.824219 Z M 344.46875 227.824219 " fill-opacity="1" fill-rule="nonzero"/><path fill="#ffffff" d="M 488.089844 157.867188 L 522.070312 157.867188 L 522.070312 185.40625 C 531.335938 166.875 545.105469 155.929688 569.820312 155.644531 L 569.820312 187.402344 C 540.03125 187.6875 522.070312 197.207031 522.070312 228.421875 L 522.070312 304.824219 L 488.089844 304.824219 Z M 488.089844 157.867188 " fill-opacity="1" fill-rule="nonzero"/><path fill="#ffffff" d="M 580.226562 233.15625 L 580.226562 230.902344 C 580.226562 184.265625 613.351562 154.789062 654.375 154.789062 C 695.398438 154.789062 717.578125 169.382812 721.511719 209.863281 L 688.640625 209.863281 C 685.820312 190.195312 672.90625 182.042969 654.917969 182.042969 C 636.929688 182.042969 615.035156 200.03125 615.035156 230.332031 L 615.035156 232.613281 C 615.035156 264.628906 630.769531 281.476562 655.773438 281.476562 C 680.773438 281.476562 689.183594 270.785156 691.148438 250.003906 L 722.335938 250.003906 C 719.800781 283.699219 694.257812 307.589844 654.375 307.589844 C 614.492188 307.589844 580.226562 280.050781 580.226562 233.15625 Z M 580.226562 233.15625 " fill-opacity="1" fill-rule="nonzero"/><path fill="#ffffff" d="M 746.3125 89.875 L 780.292969 89.875 L 780.292969 181.1875 C 787.304688 166.847656 803.613281 154.789062 827.757812 154.789062 C 851.902344 154.789062 878.046875 171.921875 878.046875 212.375 L 878.046875 304.824219 L 844.035156 304.824219 L 844.035156 215.480469 C 844.035156 193.273438 835.054688 183.183594 814.816406 183.183594 C 794.574219 183.183594 780.265625 194.957031 780.265625 218.273438 L 780.265625 304.796875 L 746.285156 304.796875 L 746.285156 89.875 Z M 746.3125 89.875 " fill-opacity="1" fill-rule="nonzero"/><path fill="#ffffff" d="M 592.457031 412.210938 L 626.4375 412.210938 L 626.4375 439.75 C 635.703125 421.25 649.472656 410.273438 674.214844 409.988281 L 674.214844 441.746094 C 644.425781 442.03125 626.4375 451.550781 626.4375 482.769531 L 626.4375 559.167969 L 592.457031 559.167969 Z M 592.457031 412.210938 " fill-opacity="1" fill-rule="nonzero"/><path fill="#ffffff" d="M 685.105469 518.402344 C 685.105469 484.136719 718.261719 471.765625 760.394531 471.765625 L 778.640625 471.765625 L 778.640625 464.179688 C 778.640625 444.511719 771.910156 434.703125 751.957031 434.703125 C 732 434.703125 725.558594 443.113281 723.875 457.710938 L 691.007812 457.710938 C 693.828125 423.445312 721.054688 409.132812 753.921875 409.132812 C 786.792969 409.132812 812.648438 422.617188 812.648438 462.785156 L 812.648438 559.140625 L 779.210938 559.140625 L 779.210938 541.152344 C 769.660156 553.78125 756.746094 561.933594 734.253906 561.933594 C 711.761719 561.933594 685.105469 549.019531 685.105469 518.402344 Z M 778.667969 507.710938 L 778.667969 493.117188 L 761.25 493.117188 C 735.421875 493.117188 718.832031 499.015625 718.832031 516.976562 C 718.832031 534.9375 725.585938 537.503906 742.433594 537.503906 C 759.28125 537.503906 778.667969 526.527344 778.667969 507.683594 Z M 778.667969 507.710938 " fill-opacity="1" fill-rule="nonzero"/><path fill="#ffffff" d="M 843.863281 506.34375 L 843.863281 412.210938 L 877.847656 412.210938 L 877.847656 502.382812 C 877.847656 524.589844 887.109375 534.679688 906.78125 534.679688 C 926.453125 534.679688 941.046875 522.90625 941.046875 499.558594 L 941.046875 412.183594 L 975.027344 412.183594 L 975.027344 559.113281 L 941.046875 559.113281 L 941.046875 536.078125 C 933.75 550.417969 918.269531 561.90625 894.410156 561.90625 C 870.546875 561.90625 843.863281 545.34375 843.863281 506.285156 Z M 843.863281 506.34375 " fill-opacity="1" fill-rule="nonzero"/><path fill="#ffffff" d="M 1008.410156 412.210938 L 1042.390625 412.210938 L 1042.390625 434.703125 C 1049.433594 420.933594 1065.425781 409.132812 1087.0625 409.132812 C 1108.699219 409.132812 1121.328125 417.257812 1128.628906 435.53125 C 1139.859375 417.257812 1160.097656 409.132812 1178.34375 409.132812 C 1205.3125 409.132812 1227.207031 425.722656 1227.207031 466.148438 L 1227.207031 559.140625 L 1193.226562 559.140625 L 1193.226562 468.398438 C 1193.226562 446.761719 1183.960938 437.5 1167.082031 437.5 C 1150.207031 437.5 1134.785156 448.703125 1134.785156 471.164062 L 1134.785156 559.113281 L 1100.804688 559.113281 L 1100.804688 468.371094 C 1100.804688 446.734375 1091.253906 437.46875 1074.664062 437.46875 C 1058.070312 437.46875 1042.363281 448.671875 1042.363281 471.136719 L 1042.363281 559.082031 L 1008.382812 559.082031 L 1008.382812 412.15625 L 1008.382812 412.210938 Z M 1008.410156 412.210938 " fill-opacity="1" fill-rule="nonzero"/><path fill="#ffffff" d="M 974.941406 223.007812 L 1226.921875 223.007812 L 1226.921875 251.34375 L 974.941406 251.34375 Z M 974.941406 223.007812 " fill-opacity="1" fill-rule="nonzero"/></svg>