<svg xmlns="http://www.w3.org/2000/svg" xmlns:xlink="http://www.w3.org/1999/xlink" width="2000" zoomAndPan="magnify" viewBox="0 0 1500 675.000002" height="900" preserveAspectRatio="xMidYMid meet" version="1.0"><defs><clipPath id="e263c217c9"><path d="M 166 96.234375 L 1426 96.234375 L 1426 206 L 166 206 Z M 166 96.234375 " clip-rule="nonzero"/></clipPath></defs><path fill="#ffffff" d="M 352.824219 216.121094 L 337.433594 269.351562 L 228.09375 269.351562 C 222.320312 269.351562 218.152344 270.636719 214.945312 273.519531 C 213.34375 275.125 211.417969 277.691406 209.496094 281.859375 C 209.171875 282.5 209.171875 283.78125 209.171875 286.027344 C 209.171875 288.273438 209.171875 289.234375 209.171875 289.234375 C 208.851562 290.195312 208.851562 291.15625 208.851562 292.441406 C 208.851562 298.210938 212.378906 300.777344 219.113281 300.777344 L 303.125 300.777344 C 312.421875 300.777344 320.121094 303.34375 326.210938 308.792969 C 332.304688 314.246094 335.191406 321.941406 335.191406 331.882812 C 335.191406 341.824219 334.226562 342.785156 332.304688 349.199219 C 327.496094 364.589844 320.761719 386.714844 311.78125 415.898438 C 309.21875 424.234375 306.332031 430.328125 303.125 433.855469 C 298.957031 438.664062 293.183594 440.910156 285.488281 440.910156 L 129.332031 440.910156 L 144.722656 387.679688 L 253.746094 387.679688 C 263.683594 387.679688 269.777344 383.511719 272.664062 375.171875 C 274.90625 368.117188 276.511719 364.589844 277.152344 364.910156 C 277.152344 364.269531 277.152344 363.308594 277.152344 362.667969 C 277.152344 356.894531 273.304688 353.6875 265.289062 353.6875 L 181.277344 353.6875 C 171.976562 353.6875 164.28125 350.800781 158.511719 345.671875 C 152.738281 340.539062 149.53125 332.523438 149.53125 322.261719 C 149.53125 312 150.496094 311.359375 152.097656 305.265625 C 163.960938 263.582031 169.734375 242.097656 170.054688 240.8125 C 173.582031 224.140625 182.238281 215.800781 196.347656 215.800781 L 352.503906 215.800781 Z M 352.824219 216.121094 " fill-opacity="1" fill-rule="nonzero"/><path fill="#ffffff" d="M 499.363281 108.378906 L 402.847656 441.230469 L 328.457031 441.230469 L 424.972656 108.378906 Z M 499.363281 108.378906 " fill-opacity="1" fill-rule="nonzero"/><path fill="#ffffff" d="M 542.332031 215.480469 L 476.917969 440.910156 L 426.574219 440.910156 L 491.988281 215.480469 Z M 542.332031 215.480469 " fill-opacity="1" fill-rule="nonzero"/><path fill="#ffffff" d="M 742.738281 272.878906 L 718.6875 355.933594 L 572.792969 355.933594 L 568.945312 370.363281 C 567.984375 373.890625 567.339844 377.097656 567.339844 379.339844 C 567.339844 385.113281 570.546875 388 576.640625 388 L 709.710938 388 L 694.320312 441.230469 L 550.988281 441.230469 C 523.734375 441.230469 510.265625 430.96875 510.265625 410.125 C 510.265625 389.28125 511.867188 395.375 515.394531 383.1875 L 557.722656 233.4375 C 561.25 221.894531 569.265625 215.800781 582.414062 215.800781 L 718.367188 215.800781 C 737.929688 215.800781 747.546875 225.742188 747.546875 244.980469 C 747.546875 264.222656 745.945312 261.335938 743.058594 272.238281 Z M 688.867188 283.78125 C 689.1875 282.5 689.1875 281.539062 689.1875 280.253906 C 689.1875 272.878906 685.339844 269.351562 677.964844 269.351562 L 613.195312 269.351562 C 607.742188 269.351562 603.574219 269.671875 601.332031 270.636719 C 598.125 272.238281 595.878906 275.125 594.917969 278.972656 L 588.503906 302.703125 L 683.738281 302.703125 Z M 688.867188 283.78125 " fill-opacity="1" fill-rule="nonzero"/><path fill="#ffffff" d="M 960.460938 216.121094 L 945.070312 269.351562 L 831.238281 269.351562 C 821.617188 269.351562 815.207031 273.519531 812.320312 281.539062 C 809.433594 289.554688 804.304688 306.550781 796.929688 332.203125 C 788.589844 361.0625 784.421875 376.777344 784.421875 379.339844 C 784.421875 385.433594 788.269531 388.320312 795.964844 388.320312 L 848.875 388.320312 C 858.8125 388.320312 864.90625 384.152344 867.792969 375.492188 C 868.433594 374.53125 870.039062 370.363281 872.28125 362.667969 L 814.886719 362.667969 L 830.277344 309.4375 L 938.015625 309.4375 L 906.910156 415.898438 C 904.347656 424.875 901.140625 430.96875 897.292969 434.816406 C 893.125 438.984375 887.351562 440.910156 880.296875 440.910156 L 758.449219 440.910156 C 749.792969 440.910156 742.417969 438.664062 736.644531 433.855469 C 729.914062 428.402344 726.707031 420.386719 726.707031 409.804688 C 726.707031 399.222656 727.667969 399.222656 729.589844 392.808594 C 741.136719 351.441406 755.5625 301.097656 773.199219 240.8125 C 775.765625 232.15625 778.972656 226.0625 782.5 222.214844 C 786.667969 217.726562 792.4375 215.800781 799.492188 215.800781 L 960.140625 215.800781 Z M 960.460938 216.121094 " fill-opacity="1" fill-rule="nonzero"/><path fill="#ffffff" d="M 1167.28125 272.878906 L 1143.230469 355.933594 L 997.335938 355.933594 L 993.488281 370.363281 C 992.527344 373.890625 991.882812 377.097656 991.882812 379.339844 C 991.882812 385.113281 995.089844 388 1001.183594 388 L 1133.933594 388 L 1118.542969 441.230469 L 975.210938 441.230469 C 947.957031 441.230469 934.488281 430.96875 934.488281 410.125 C 934.488281 389.28125 936.089844 395.375 939.617188 383.1875 L 981.945312 233.4375 C 985.472656 221.894531 993.488281 215.800781 1006.632812 215.800781 L 1142.589844 215.800781 C 1162.152344 215.800781 1171.769531 225.742188 1171.769531 244.980469 C 1171.769531 264.222656 1170.167969 261.335938 1167.28125 272.238281 Z M 1113.410156 283.78125 C 1113.410156 282.5 1113.730469 281.539062 1113.730469 280.253906 C 1113.730469 272.878906 1109.882812 269.351562 1102.507812 269.351562 L 1037.738281 269.351562 C 1032.285156 269.351562 1028.117188 269.671875 1025.875 270.636719 C 1022.667969 272.238281 1020.421875 275.125 1019.460938 278.972656 L 1013.046875 302.703125 L 1108.28125 302.703125 Z M 1113.410156 283.78125 " fill-opacity="1" fill-rule="nonzero"/><path fill="#ffffff" d="M 1400.714844 216.121094 L 1385.324219 269.351562 L 1258.667969 269.351562 C 1253.535156 269.351562 1248.726562 270.957031 1244.558594 273.84375 C 1240.390625 276.726562 1237.824219 280.253906 1236.863281 284.101562 L 1191.007812 441.230469 L 1140.667969 441.230469 L 1196.140625 248.832031 C 1202.550781 227.023438 1216.339844 216.121094 1237.503906 216.121094 Z M 1400.714844 216.121094 " fill-opacity="1" fill-rule="nonzero"/><path fill="#ffffff" d="M 180.957031 507.605469 L 176.148438 520.753906 C 174.222656 525.886719 171.015625 529.09375 166.527344 530.054688 C 167.488281 530.054688 168.449219 531.015625 169.09375 532.296875 C 169.734375 533.582031 170.054688 534.863281 170.054688 536.46875 C 170.054688 538.070312 170.054688 538.390625 169.734375 539.351562 L 162.039062 561.160156 C 160.113281 566.929688 156.265625 570.136719 150.816406 570.136719 L 77.707031 570.136719 L 105.921875 490.933594 L 168.128906 490.933594 C 172.296875 490.933594 175.503906 491.894531 178.070312 493.820312 C 180.636719 495.742188 181.917969 498.308594 181.917969 501.835938 C 181.917969 505.363281 181.597656 505.683594 180.957031 507.929688 Z M 146.648438 543.523438 C 146.648438 543.203125 146.648438 542.558594 146.648438 542.238281 C 146.648438 539.675781 145.363281 538.390625 142.15625 538.390625 L 110.414062 538.390625 L 105.601562 551.539062 L 137.027344 551.539062 C 141.195312 551.539062 144.082031 549.933594 145.042969 547.050781 L 146.324219 543.523438 Z M 157.226562 513.378906 C 157.226562 513.378906 157.226562 512.738281 157.226562 512.738281 C 157.226562 510.492188 155.625 509.53125 152.097656 509.53125 L 120.671875 509.53125 L 117.148438 519.792969 L 149.210938 519.792969 C 151.457031 519.792969 153.058594 519.792969 154.34375 519.152344 C 154.984375 518.832031 155.625 517.867188 156.265625 516.585938 L 157.226562 513.699219 Z M 157.226562 513.378906 " fill-opacity="1" fill-rule="nonzero"/><path fill="#ffffff" d="M 273.945312 506.644531 L 251.5 570.136719 L 184.804688 570.136719 C 181.277344 570.136719 178.390625 568.855469 176.789062 566.609375 C 175.503906 564.6875 174.542969 561.800781 174.542969 558.914062 C 174.542969 556.027344 174.863281 554.746094 175.503906 553.140625 L 184.164062 528.769531 C 186.085938 522.679688 190.253906 519.792969 196.667969 519.792969 L 247.652344 519.792969 L 249.253906 514.984375 C 249.253906 514.339844 249.253906 513.699219 249.253906 513.378906 C 249.253906 511.132812 247.652344 509.851562 244.765625 509.851562 L 190.253906 509.851562 L 196.667969 491.253906 L 263.683594 491.253906 C 270.738281 491.253906 274.265625 494.78125 274.265625 501.835938 C 274.265625 508.890625 274.265625 505.363281 273.304688 506.964844 Z M 241.238281 538.070312 L 207.25 538.070312 C 204.042969 538.070312 202.121094 539.351562 201.15625 542.238281 L 199.875 545.445312 C 199.875 546.40625 199.554688 547.050781 199.554688 548.011719 C 199.554688 550.257812 200.835938 551.21875 203.082031 551.21875 L 237.070312 551.21875 L 241.878906 538.070312 Z M 241.238281 538.070312 " fill-opacity="1" fill-rule="nonzero"/><path fill="#ffffff" d="M 372.066406 490.613281 L 347.054688 562.441406 C 346.09375 565.007812 344.488281 566.929688 342.246094 568.214844 C 340.320312 569.175781 338.074219 569.816406 335.832031 569.816406 L 278.433594 569.816406 C 270.417969 569.816406 266.570312 566.609375 266.570312 559.554688 C 266.570312 552.5 267.210938 553.140625 268.816406 548.652344 L 289.335938 490.292969 L 310.820312 490.292969 L 291.902344 544.804688 C 291.902344 545.445312 291.902344 546.085938 291.902344 546.726562 C 291.902344 549.613281 293.183594 550.898438 295.429688 550.898438 L 324.289062 550.898438 C 328.136719 550.898438 330.699219 548.972656 332.304688 545.125 L 351.222656 490.613281 L 373.027344 490.613281 Z M 372.066406 490.613281 " fill-opacity="1" fill-rule="nonzero"/><path fill="#ffffff" d="M 459.601562 490.613281 L 452.867188 509.210938 L 404.128906 509.210938 C 399.960938 509.210938 397.394531 510.8125 396.113281 513.699219 C 394.832031 516.585938 392.90625 522.679688 389.699219 531.65625 C 386.171875 541.917969 384.25 547.371094 384.25 548.332031 C 384.25 550.578125 385.851562 551.539062 389.058594 551.539062 L 411.824219 551.539062 C 415.992188 551.539062 418.878906 549.933594 419.839844 547.050781 C 419.839844 546.730469 420.804688 545.125 421.765625 542.558594 L 397.074219 542.558594 L 403.808594 523.960938 L 449.984375 523.960938 L 436.835938 561.480469 C 435.554688 564.6875 434.269531 566.929688 432.667969 568.214844 C 430.742188 569.816406 428.5 570.457031 425.292969 570.457031 L 373.027344 570.457031 C 369.179688 570.457031 366.292969 569.496094 363.726562 567.894531 C 360.84375 565.96875 359.558594 563.082031 359.558594 559.554688 C 359.558594 556.027344 359.878906 555.707031 360.84375 553.460938 C 365.652344 539.03125 372.066406 521.074219 379.441406 499.910156 C 380.722656 496.703125 382.003906 494.78125 383.289062 493.5 C 385.210938 491.894531 387.457031 491.253906 390.664062 491.253906 L 459.601562 491.253906 Z M 459.601562 490.613281 " fill-opacity="1" fill-rule="nonzero"/><path fill="#ffffff" d="M 549.066406 510.8125 L 538.804688 539.996094 L 476.277344 539.996094 L 474.671875 545.125 C 474.351562 546.40625 474.03125 547.371094 474.03125 548.332031 C 474.03125 550.257812 475.316406 551.539062 477.878906 551.539062 L 534.957031 551.539062 L 528.542969 570.136719 L 466.976562 570.136719 C 455.433594 570.136719 449.339844 566.609375 449.339844 559.234375 C 449.339844 551.859375 449.984375 554.105469 451.585938 549.933594 L 469.863281 497.347656 C 471.46875 493.175781 474.992188 491.253906 480.445312 491.253906 L 538.804688 491.253906 C 547.140625 491.253906 551.308594 494.78125 551.308594 501.515625 C 551.308594 508.25 550.667969 507.285156 549.386719 511.136719 Z M 525.65625 514.660156 C 525.65625 514.339844 525.65625 513.699219 525.65625 513.378906 C 525.65625 510.8125 524.054688 509.53125 520.847656 509.53125 L 492.949219 509.53125 C 490.707031 509.53125 488.78125 509.53125 487.820312 510.171875 C 486.539062 510.8125 485.574219 511.777344 484.933594 513.058594 L 482.367188 521.394531 L 523.089844 521.394531 L 525.335938 514.660156 Z M 525.65625 514.660156 " fill-opacity="1" fill-rule="nonzero"/><path fill="#ffffff" d="M 638.527344 490.613281 L 632.113281 509.210938 L 585.296875 509.210938 C 582.734375 509.210938 580.808594 509.851562 579.527344 510.8125 C 578.886719 511.457031 577.921875 512.417969 577.28125 513.699219 C 577.28125 513.699219 577.28125 514.339844 577.28125 515.304688 C 577.28125 516.265625 577.28125 516.585938 577.28125 516.585938 C 577.28125 516.90625 577.28125 517.226562 577.28125 517.546875 C 577.28125 519.472656 578.886719 520.433594 581.769531 520.433594 L 617.683594 520.433594 C 621.851562 520.433594 625.058594 521.394531 627.625 523.320312 C 630.1875 525.242188 631.472656 527.808594 631.472656 531.335938 C 631.472656 534.863281 631.152344 535.183594 630.191406 537.429688 C 628.265625 542.878906 625.378906 550.578125 621.53125 560.835938 C 620.570312 563.722656 619.289062 565.96875 617.683594 567.25 C 615.761719 568.855469 613.515625 569.816406 609.988281 569.816406 L 542.972656 569.816406 L 549.707031 551.21875 L 596.519531 551.21875 C 600.691406 551.21875 603.574219 549.613281 604.539062 546.726562 C 605.5 544.164062 606.140625 542.878906 606.460938 543.199219 C 606.460938 543.199219 606.460938 542.558594 606.460938 542.558594 C 606.460938 540.636719 604.859375 539.351562 601.332031 539.351562 L 565.417969 539.351562 C 561.570312 539.351562 558.042969 538.390625 555.796875 536.46875 C 553.234375 534.542969 551.949219 531.65625 551.949219 528.128906 C 551.949219 524.601562 552.269531 524.28125 552.914062 522.035156 C 558.042969 507.285156 560.609375 499.910156 560.609375 499.269531 C 562.210938 493.496094 565.738281 490.292969 571.832031 490.292969 L 638.847656 490.292969 Z M 638.527344 490.613281 " fill-opacity="1" fill-rule="nonzero"/><path fill="#ffffff" d="M 702.976562 569.816406 L 646.542969 569.816406 C 642.695312 569.816406 639.167969 568.855469 636.921875 566.929688 C 634.359375 565.007812 633.074219 562.441406 633.074219 558.914062 C 633.074219 555.386719 633.394531 555.066406 634.039062 552.820312 L 652.636719 499.269531 C 654.558594 493.5 658.40625 490.292969 663.859375 490.292969 L 730.875 490.292969 L 724.460938 508.890625 L 677.644531 508.890625 C 673.15625 508.890625 670.589844 510.492188 669.628906 513.378906 C 669.628906 512.738281 665.78125 523.960938 657.765625 547.050781 C 657.765625 547.050781 657.765625 547.691406 657.765625 547.691406 C 657.765625 549.613281 659.367188 550.898438 662.574219 550.898438 L 709.710938 550.898438 L 702.976562 569.496094 Z M 702.976562 569.816406 " fill-opacity="1" fill-rule="nonzero"/><path fill="#ffffff" d="M 827.710938 490.613281 L 799.492188 569.816406 L 777.6875 569.816406 L 789.234375 537.75 L 749.472656 537.75 L 738.25 569.816406 L 716.445312 569.816406 L 744.664062 490.613281 L 766.464844 490.613281 L 756.527344 519.472656 L 796.289062 519.472656 L 806.546875 490.613281 L 828.03125 490.613281 Z M 827.710938 490.613281 " fill-opacity="1" fill-rule="nonzero"/><path fill="#ffffff" d="M 918.457031 506.644531 L 896.007812 570.136719 L 829.3125 570.136719 C 825.785156 570.136719 822.902344 568.855469 821.296875 566.609375 C 819.695312 564.6875 819.054688 561.800781 819.054688 558.914062 C 819.054688 556.027344 819.375 554.746094 820.015625 553.140625 L 828.671875 528.769531 C 830.597656 522.679688 835.085938 519.792969 841.179688 519.792969 L 892.160156 519.792969 L 893.765625 514.984375 C 893.765625 514.339844 893.765625 513.699219 893.765625 513.378906 C 893.765625 511.132812 892.160156 509.851562 889.277344 509.851562 L 834.765625 509.851562 L 841.179688 491.253906 L 908.195312 491.253906 C 915.25 491.253906 918.777344 494.78125 918.777344 501.835938 C 918.777344 508.890625 918.777344 505.363281 917.8125 506.964844 Z M 885.75 538.070312 L 851.761719 538.070312 C 848.554688 538.070312 846.628906 539.351562 845.667969 542.238281 L 844.386719 545.445312 C 844.386719 546.40625 844.0625 547.050781 844.0625 548.011719 C 844.0625 550.257812 845.347656 551.21875 847.269531 551.21875 L 881.261719 551.21875 L 886.070312 538.070312 Z M 884.464844 468.808594 L 877.734375 487.40625 L 856.25 487.40625 L 862.660156 468.808594 Z M 913.324219 468.808594 L 906.589844 487.40625 L 885.109375 487.40625 L 891.519531 468.808594 Z M 913.324219 468.808594 " fill-opacity="1" fill-rule="nonzero"/><path fill="#ffffff" d="M 989.320312 519.472656 C 989.640625 518.832031 987.714844 524.921875 982.90625 538.070312 L 943.144531 538.070312 L 931.921875 570.136719 L 910.117188 570.136719 L 938.015625 490.933594 L 999.257812 490.933594 L 992.847656 509.851562 L 952.765625 509.851562 L 949.238281 519.792969 L 989 519.792969 Z M 989.320312 519.472656 " fill-opacity="1" fill-rule="nonzero"/><path fill="#ffffff" d="M 1015.613281 569.816406 L 1037.097656 509.53125 L 1004.390625 509.53125 L 1011.125 490.613281 L 1096.738281 490.613281 L 1090.003906 509.53125 L 1058.257812 509.53125 L 1036.777344 569.816406 L 1014.972656 569.816406 Z M 1015.613281 569.816406 " fill-opacity="1" fill-rule="nonzero"/><path fill="#ffffff" d="M 1225.960938 506.644531 L 1203.515625 570.136719 L 1136.820312 570.136719 C 1133.292969 570.136719 1130.40625 568.855469 1128.804688 566.609375 C 1127.199219 564.6875 1126.558594 561.800781 1126.558594 558.914062 C 1126.558594 556.027344 1126.558594 554.746094 1127.519531 553.140625 L 1136.179688 528.769531 C 1138.101562 522.679688 1142.589844 519.792969 1148.683594 519.792969 L 1199.667969 519.792969 L 1201.269531 514.984375 C 1201.269531 514.339844 1201.269531 513.699219 1201.269531 513.378906 C 1201.269531 511.132812 1199.667969 509.851562 1196.78125 509.851562 L 1142.269531 509.851562 L 1148.683594 491.253906 L 1215.699219 491.253906 C 1222.753906 491.253906 1226.28125 494.78125 1226.28125 501.835938 C 1226.28125 508.890625 1226.28125 505.363281 1225.320312 506.964844 Z M 1193.253906 538.070312 L 1158.945312 538.070312 C 1155.738281 538.070312 1153.8125 539.351562 1152.851562 542.238281 L 1151.570312 545.445312 C 1151.570312 546.40625 1151.25 547.050781 1151.25 548.011719 C 1151.25 550.257812 1152.210938 551.21875 1154.453125 551.21875 L 1188.445312 551.21875 Z M 1193.253906 538.070312 " fill-opacity="1" fill-rule="nonzero"/><path fill="#ffffff" d="M 1320.550781 490.613281 L 1313.820312 509.210938 L 1265.078125 509.210938 C 1260.910156 509.210938 1258.347656 510.8125 1257.0625 513.699219 C 1255.78125 516.585938 1253.855469 522.679688 1250.652344 531.65625 C 1247.125 541.917969 1245.199219 547.371094 1245.199219 548.332031 C 1245.199219 550.578125 1246.804688 551.539062 1250.007812 551.539062 L 1272.777344 551.539062 C 1276.945312 551.539062 1279.828125 549.933594 1280.792969 547.050781 C 1280.792969 546.730469 1281.753906 545.125 1282.714844 542.558594 L 1258.023438 542.558594 L 1264.757812 523.960938 L 1310.933594 523.960938 L 1297.464844 561.480469 C 1296.503906 564.6875 1294.898438 566.929688 1293.296875 568.214844 C 1291.375 569.816406 1289.128906 570.457031 1285.921875 570.457031 L 1233.65625 570.457031 C 1229.808594 570.457031 1226.601562 569.496094 1224.355469 567.894531 C 1221.472656 565.96875 1220.1875 563.082031 1220.1875 559.554688 C 1220.1875 556.027344 1220.507812 555.707031 1221.472656 553.460938 C 1226.28125 539.03125 1232.695312 521.074219 1240.070312 499.910156 C 1241.03125 496.703125 1242.632812 494.78125 1243.917969 493.5 C 1245.839844 491.894531 1248.085938 491.253906 1251.292969 491.253906 L 1320.230469 491.253906 Z M 1320.550781 490.613281 " fill-opacity="1" fill-rule="nonzero"/><path fill="#ffffff" d="M 1407.128906 186.941406 L 184.164062 187.261719 L 207.570312 108.058594 L 1238.785156 108.058594 Z M 1407.128906 186.941406 " fill-opacity="1" fill-rule="nonzero"/><g clip-path="url(#e263c217c9)"><path stroke-linecap="butt" transform="matrix(3.206518, 0, 0, 3.206656, -575.461214, -576.883611)" fill="none" stroke-linejoin="miter" d="M 618.300068 238.199881 L 236.900384 238.299771 L 244.199969 213.600168 L 565.799579 213.600168 Z M 618.300068 238.199881 " stroke="#ffffff" stroke-width="1" stroke-opacity="1" stroke-miterlimit="4"/></g></svg>