<svg xmlns="http://www.w3.org/2000/svg" xmlns:xlink="http://www.w3.org/1999/xlink" width="2000" zoomAndPan="magnify" viewBox="0 0 1500 675.000002" height="900" preserveAspectRatio="xMidYMid meet" version="1.0"><path fill="#ffffff" d="M 591.539062 309.28125 C 593.625 309.28125 596.015625 309.410156 598.707031 309.667969 C 601.402344 309.925781 604.050781 310.265625 606.652344 310.683594 C 609.238281 311.125 611.648438 311.546875 613.820312 311.996094 C 615.453125 312.292969 617.058594 312.683594 618.644531 313.167969 L 614.476562 334.292969 C 611.351562 333.277344 608.179688 332.453125 604.957031 331.820312 C 599.308594 330.75 593.613281 330.273438 587.871094 330.378906 C 583.339844 330.382812 578.863281 330.859375 574.4375 331.820312 C 570 332.777344 567.085938 333.429688 565.703125 333.777344 L 565.703125 447.777344 L 541.457031 447.777344 L 541.457031 317.886719 C 548.457031 315.453125 555.585938 313.496094 562.851562 312.019531 C 572.316406 310.097656 581.878906 309.183594 591.539062 309.28125 Z M 642.140625 447.777344 L 642.140625 249.511719 L 666.394531 245.34375 L 666.394531 314.726562 C 671.09375 312.933594 675.917969 311.582031 680.867188 310.675781 C 685.910156 309.730469 690.996094 309.253906 696.128906 309.246094 C 706.914062 309.246094 715.871094 310.769531 723 313.8125 C 726.347656 315.171875 729.472656 316.933594 732.367188 319.097656 C 735.261719 321.265625 737.832031 323.761719 740.085938 326.589844 C 744.554688 332.484375 747.550781 339.046875 749.078125 346.285156 C 750.886719 354.621094 751.746094 363.054688 751.664062 371.582031 L 751.664062 447.746094 L 727.429688 447.746094 L 727.429688 376.835938 C 727.515625 369.652344 726.941406 362.523438 725.703125 355.445312 C 724.554688 349.535156 722.6875 344.75 720.097656 341.097656 C 718.796875 339.277344 717.257812 337.691406 715.480469 336.335938 C 713.699219 334.980469 711.761719 333.917969 709.664062 333.148438 C 705.308594 331.492188 699.917969 330.664062 693.492188 330.664062 C 690.78125 330.675781 688.085938 330.847656 685.398438 331.191406 C 682.617188 331.535156 679.972656 331.933594 677.449219 332.363281 C 674.921875 332.792969 672.667969 333.277344 670.667969 333.800781 C 669.207031 334.15625 667.769531 334.589844 666.359375 335.101562 L 666.359375 447.777344 Z M 770.730469 473.082031 C 773.136719 474.121094 775.617188 474.949219 778.167969 475.566406 C 781.117188 476.332031 784.113281 476.722656 787.160156 476.738281 C 796.722656 476.738281 804.191406 474.605469 809.5625 470.34375 C 814.933594 466.082031 819.816406 459.167969 824.207031 449.605469 C 813.25 428.738281 803.035156 406.625 793.5625 383.265625 C 784.152344 360.082031 776.285156 336.390625 769.957031 312.183594 L 796.035156 312.183594 C 797.949219 320.007812 800.246094 328.4375 802.929688 337.480469 C 805.609375 346.519531 808.609375 355.824219 811.921875 365.394531 C 815.230469 374.957031 818.796875 384.523438 822.613281 394.085938 C 826.433594 403.648438 830.433594 412.863281 834.617188 421.734375 C 841.226562 403.472656 846.972656 385.382812 851.847656 367.453125 C 856.722656 349.527344 861.335938 331.097656 865.675781 312.160156 L 890.714844 312.160156 C 884.453125 337.722656 877.496094 362.285156 869.847656 385.839844 C 862.195312 409.394531 853.9375 431.445312 845.066406 451.984375 C 842.011719 459.019531 838.402344 465.757812 834.238281 472.195312 C 830.832031 477.492188 826.699219 482.144531 821.847656 486.152344 C 817.285156 489.835938 812.199219 492.527344 806.589844 494.234375 C 800.328125 496.058594 793.9375 496.917969 787.417969 496.820312 C 785.402344 496.816406 783.390625 496.683594 781.386719 496.421875 C 779.304688 496.164062 777.261719 495.816406 775.261719 495.382812 C 773.265625 494.949219 771.4375 494.46875 769.78125 493.949219 C 768.578125 493.597656 767.402344 493.160156 766.257812 492.640625 L 770.695312 473.082031 Z M 907.144531 379.171875 C 907.082031 369.539062 908.691406 360.195312 911.96875 351.136719 C 912.726562 349 913.589844 346.910156 914.5625 344.863281 C 915.535156 342.820312 916.609375 340.828125 917.789062 338.894531 C 918.964844 336.960938 920.242188 335.09375 921.613281 333.289062 C 922.984375 331.488281 924.445312 329.761719 925.996094 328.109375 C 927.546875 326.457031 929.179688 324.890625 930.890625 323.40625 C 932.601562 321.925781 934.386719 320.535156 936.242188 319.238281 C 938.101562 317.9375 940.019531 316.742188 942 315.640625 C 943.980469 314.542969 946.011719 313.546875 948.09375 312.660156 C 956.789062 308.832031 966.703125 306.921875 977.828125 306.921875 C 984.589844 306.867188 991.285156 307.515625 997.910156 308.875 C 1004 310.183594 1009.914062 312.054688 1015.652344 314.484375 L 1007.570312 345.5 C 1003.644531 344.03125 999.644531 342.8125 995.566406 341.847656 C 990.746094 340.75 985.863281 340.226562 980.921875 340.28125 C 969.433594 340.28125 960.867188 343.847656 955.226562 350.980469 C 949.589844 358.113281 946.761719 367.503906 946.75 379.144531 C 946.75 391.496094 949.402344 401.058594 954.703125 407.835938 C 960.003906 414.613281 969.261719 418.007812 982.480469 418.011719 C 987.558594 417.980469 992.601562 417.546875 997.609375 416.710938 C 1002.734375 415.917969 1007.691406 414.523438 1012.480469 412.53125 L 1017.949219 444.359375 C 1012.464844 446.5625 1006.816406 448.214844 1001.003906 449.3125 C 993.605469 450.761719 986.140625 451.457031 978.601562 451.398438 C 966.085938 451.398438 955.304688 449.527344 946.257812 445.789062 C 942.019531 444.113281 938.015625 441.988281 934.253906 439.410156 C 930.492188 436.835938 927.058594 433.875 923.960938 430.53125 C 921.011719 427.246094 918.457031 423.679688 916.300781 419.828125 C 914.144531 415.980469 912.433594 411.9375 911.175781 407.707031 C 908.394531 398.390625 907.046875 388.871094 907.136719 379.144531 Z M 1089.996094 420.65625 C 1093.820312 420.65625 1097.472656 420.570312 1100.945312 420.398438 C 1103.742188 420.285156 1106.527344 420.023438 1109.296875 419.613281 L 1109.296875 390.140625 C 1106.96875 389.671875 1104.621094 389.324219 1102.257812 389.097656 C 1099.394531 388.761719 1096.523438 388.585938 1093.640625 388.570312 C 1090.179688 388.554688 1086.734375 388.773438 1083.300781 389.226562 C 1080.339844 389.582031 1077.511719 390.40625 1074.824219 391.699219 C 1072.46875 392.839844 1070.554688 394.496094 1069.085938 396.660156 C 1067.59375 399.058594 1066.898438 401.664062 1067 404.484375 C 1067 410.566406 1069.042969 414.785156 1073.125 417.132812 C 1077.210938 419.480469 1082.820312 420.65625 1089.953125 420.65625 Z M 1086.867188 306.929688 C 1098.355469 306.929688 1107.917969 308.234375 1115.558594 310.847656 C 1123.199219 313.460938 1129.328125 317.195312 1133.945312 322.050781 C 1136.285156 324.554688 1138.285156 327.308594 1139.941406 330.308594 C 1141.597656 333.3125 1142.855469 336.472656 1143.722656 339.789062 C 1145.722656 347.398438 1146.679688 355.132812 1146.59375 363 L 1146.59375 443.859375 C 1141.039062 445.082031 1133.300781 446.519531 1123.382812 448.167969 C 1113.460938 449.816406 1101.472656 450.640625 1087.410156 450.648438 C 1079.285156 450.722656 1071.246094 449.941406 1063.289062 448.304688 C 1056.566406 446.960938 1050.347656 444.394531 1044.632812 440.609375 C 1042.050781 438.855469 1039.746094 436.796875 1037.710938 434.429688 C 1035.675781 432.0625 1033.988281 429.46875 1032.640625 426.652344 C 1029.855469 420.910156 1028.460938 413.867188 1028.460938 405.527344 C 1028.460938 397.53125 1030.070312 390.75 1033.289062 385.1875 C 1034.84375 382.457031 1036.714844 379.96875 1038.90625 377.714844 C 1041.09375 375.460938 1043.527344 373.519531 1046.210938 371.882812 C 1051.96875 368.425781 1058.140625 366.03125 1064.726562 364.707031 C 1071.867188 363.210938 1079.082031 362.472656 1086.378906 362.492188 C 1090.867188 362.464844 1095.34375 362.679688 1099.808594 363.136719 C 1103.027344 363.457031 1106.203125 364.03125 1109.328125 364.859375 L 1109.328125 361.207031 C 1109.328125 354.601562 1107.320312 349.300781 1103.296875 345.304688 C 1099.277344 341.304688 1092.320312 339.296875 1082.429688 339.273438 C 1075.875 339.269531 1069.359375 339.75 1062.875 340.710938 C 1057.167969 341.484375 1051.601562 342.832031 1046.175781 344.75 L 1041.222656 313.449219 C 1043.480469 312.761719 1046.304688 312.023438 1049.699219 311.238281 C 1053.09375 310.449219 1056.789062 309.753906 1060.78125 309.152344 C 1064.800781 308.535156 1069.019531 308.015625 1073.4375 307.582031 C 1077.851562 307.152344 1082.332031 306.933594 1086.867188 306.929688 Z M 1221.195312 419.871094 C 1228.320312 419.871094 1233.363281 419.175781 1236.324219 417.789062 C 1239.28125 416.390625 1240.753906 413.703125 1240.753906 409.699219 C 1240.753906 406.566406 1238.84375 403.832031 1235.015625 401.488281 C 1231.191406 399.144531 1225.355469 396.488281 1217.507812 393.527344 C 1211.871094 391.460938 1206.351562 389.113281 1200.949219 386.488281 C 1196.265625 384.246094 1192.046875 381.335938 1188.292969 377.75 C 1184.746094 374.273438 1182.054688 370.230469 1180.210938 365.621094 C 1178.300781 360.921875 1177.34375 355.269531 1177.34375 348.664062 C 1177.34375 335.796875 1182.125 325.625 1191.6875 318.148438 C 1201.25 310.667969 1214.378906 306.933594 1231.070312 306.945312 C 1239.140625 306.917969 1247.136719 307.660156 1255.066406 309.167969 C 1261.289062 310.257812 1267.375 311.863281 1273.320312 313.992188 L 1266.542969 344.253906 C 1261.703125 342.597656 1256.792969 341.203125 1251.808594 340.074219 C 1245.929688 338.800781 1239.980469 338.191406 1233.964844 338.253906 C 1221.792969 338.253906 1215.707031 341.648438 1215.707031 348.429688 C 1215.679688 349.875 1215.941406 351.265625 1216.492188 352.601562 C 1217.207031 354.066406 1218.25 355.238281 1219.621094 356.125 C 1221.648438 357.523438 1223.777344 358.742188 1226.011719 359.777344 C 1229.386719 361.390625 1232.832031 362.824219 1236.351562 364.085938 C 1243.621094 366.691406 1250.664062 369.804688 1257.476562 373.433594 C 1262.414062 376.015625 1266.804688 379.320312 1270.652344 383.351562 C 1273.808594 386.792969 1276.070312 390.746094 1277.433594 395.214844 C 1278.820312 400.148438 1279.46875 405.175781 1279.386719 410.300781 C 1279.386719 423.820312 1274.300781 434.066406 1264.128906 441.03125 C 1253.957031 448 1239.566406 451.464844 1220.957031 451.433594 C 1208.789062 451.433594 1198.664062 450.390625 1190.578125 448.304688 C 1182.488281 446.21875 1176.878906 444.480469 1173.75 443.082031 L 1180.273438 411.523438 C 1186.882812 414.132812 1193.664062 416.179688 1200.613281 417.660156 C 1207.40625 419.117188 1214.277344 419.855469 1221.222656 419.871094 Z M 1360.773438 420.65625 C 1364.597656 420.65625 1368.25 420.570312 1371.730469 420.398438 C 1374.523438 420.285156 1377.304688 420.023438 1380.070312 419.613281 L 1380.070312 390.140625 C 1377.742188 389.671875 1375.398438 389.324219 1373.03125 389.097656 C 1370.171875 388.761719 1367.296875 388.585938 1364.417969 388.570312 C 1360.957031 388.554688 1357.507812 388.773438 1354.078125 389.226562 C 1351.113281 389.582031 1348.289062 390.40625 1345.597656 391.699219 C 1343.242188 392.839844 1341.332031 394.496094 1339.863281 396.660156 C 1338.367188 399.058594 1337.671875 401.664062 1337.777344 404.484375 C 1337.777344 410.566406 1339.816406 414.785156 1343.902344 417.132812 C 1347.984375 419.480469 1353.59375 420.65625 1360.730469 420.65625 Z M 1357.644531 306.929688 C 1369.132812 306.929688 1378.695312 308.234375 1386.335938 310.847656 C 1393.972656 313.460938 1400.101562 317.195312 1404.722656 322.050781 C 1407.0625 324.554688 1409.0625 327.304688 1410.722656 330.308594 C 1412.378906 333.3125 1413.640625 336.472656 1414.507812 339.789062 C 1416.507812 347.398438 1417.464844 355.132812 1417.378906 363 L 1417.378906 443.859375 C 1411.8125 445.082031 1404.058594 446.519531 1394.113281 448.167969 C 1384.171875 449.816406 1372.171875 450.640625 1358.117188 450.640625 C 1349.992188 450.714844 1341.953125 449.933594 1333.992188 448.296875 C 1327.273438 446.953125 1321.058594 444.386719 1315.347656 440.601562 C 1312.765625 438.847656 1310.457031 436.789062 1308.421875 434.421875 C 1306.382812 432.054688 1304.695312 429.460938 1303.347656 426.644531 C 1300.5625 420.902344 1299.171875 413.859375 1299.179688 405.519531 C 1299.179688 397.523438 1300.785156 390.742188 1304.003906 385.175781 C 1305.558594 382.449219 1307.429688 379.957031 1309.621094 377.703125 C 1311.808594 375.453125 1314.242188 373.507812 1316.925781 371.875 C 1322.6875 368.414062 1328.863281 366.023438 1335.449219 364.699219 C 1342.585938 363.203125 1349.800781 362.464844 1357.09375 362.484375 C 1361.582031 362.457031 1366.058594 362.671875 1370.523438 363.128906 C 1373.746094 363.445312 1376.917969 364.019531 1380.046875 364.851562 L 1380.046875 361.199219 C 1380.046875 354.59375 1378.035156 349.292969 1374.015625 345.292969 C 1369.992188 341.296875 1363.039062 339.285156 1353.148438 339.261719 C 1346.59375 339.261719 1340.074219 339.738281 1333.589844 340.703125 C 1327.882812 341.476562 1322.320312 342.824219 1316.890625 344.742188 L 1311.9375 313.441406 C 1314.195312 312.753906 1317.019531 312.015625 1320.414062 311.226562 C 1323.808594 310.441406 1327.507812 309.746094 1331.503906 309.144531 C 1335.523438 308.527344 1339.742188 308.003906 1344.152344 307.574219 C 1348.5625 307.144531 1353.046875 306.929688 1357.601562 306.929688 Z M 1357.644531 306.929688 " fill-opacity="1" fill-rule="evenodd"/><path fill="#ffffff" d="M 68.226562 333.164062 L 68.226562 498.285156 L 210.613281 498.257812 L 210.863281 457.636719 L 108.636719 457.652344 L 108.636719 356.339844 L 257.222656 267.019531 L 405.820312 356.339844 L 405.820312 457.652344 L 277.738281 457.652344 L 277.738281 378.386719 L 236.710938 402.960938 L 236.710938 522.082031 L 275.667969 498.285156 L 446.21875 498.285156 L 446.21875 333.164062 L 257.222656 220.589844 Z M 68.226562 333.164062 " fill-opacity="1" fill-rule="nonzero"/><path fill="#ffffff" d="M 257.222656 144.089844 L 68.226562 258.050781 L 68.226562 304.128906 L 257.222656 190.519531 L 446.21875 304.128906 L 446.21875 258.050781 Z M 257.222656 144.089844 " fill-opacity="1" fill-rule="nonzero"/></svg>