<svg id="Capa_1" enable-background="new 0 0 512 512" height="512" viewBox="0 0 512 512" width="512" xmlns="http://www.w3.org/2000/svg"><g><g><path d="m256 0c-49.706 0-90 40.294-90 90s40.294 90 90 90 90-40.294 90-90-40.294-90-90-90zm41.317 75.858-49.497 49.497c-5.858 5.858-15.355 5.858-21.213 0l-21.214-21.213c-5.858-5.858-5.858-15.355 0-21.213 5.858-5.858 15.355-5.858 21.213 0l10.607 10.607 38.891-38.891c5.858-5.858 15.355-5.858 21.213 0 5.858 5.858 5.858 15.355 0 21.213z"/><path d="m30 431.011h-15c-8.284 0-15-6.716-15-15v-190c0-8.284 6.716-15 15-15h15c8.284 0 15 6.716 15 15v190c0 8.284-6.716 15-15 15z"/><path d="m497 431.011h-15c-8.284 0-15-6.716-15-15v-190c0-8.284 6.716-15 15-15h15c8.284 0 15 6.716 15 15v190c0 8.284-6.716 15-15 15z"/></g><g><path d="m365.042 401.673-70.064-78.13c-6.131-6.837-16.131-8.62-24.248-4.323l-65.535 34.694c-9.637 5.102-20.474 7.798-31.339 7.798-24.561 0-47.124-13.387-58.884-34.937-17.575-32.207-5.78-72.905 26.293-90.723l9.073-5.04h-.001-75.339v173l124.008 93.005c13.19 9.89 29.054 14.983 45.041 14.983 8.351 0 16.733-1.415 24.786-4.239l70.685-30.667 19.123-11.558c9.049-5.469 15.435-14.457 17.555-24.816.005-.027.011-.054.016-.08 2.843-14.017-1.334-28.584-11.17-38.967z"/></g><path d="m216 231.011c-2.549 0-5.056.65-7.285 1.888l-52.88 29.378c-17.789 9.883-24.276 32.265-14.528 50.129 9.713 17.799 31.931 24.482 49.852 14.995l58.628-31.038c24.349-12.891 54.349-7.542 72.743 12.97l64.608 72.047c9.239 9.876 15.458 21.964 18.256 34.844 11.016-3.018 21.623-7.461 31.605-13.23v-171.983z"/></g></svg>