<svg width="19" height="19" viewBox="0 0 19 19" fill="none" xmlns="http://www.w3.org/2000/svg">
<path fill-rule="evenodd" clip-rule="evenodd" d="M8.07238 10.9274L9.95378 18.0763C10.0897 18.593 10.542 18.9647 11.0756 18.9974C11.6093 19.0304 12.1041 18.7173 12.3023 18.2209L18.911 1.69922C19.0952 1.23909 18.9874 0.713283 18.6367 0.363024C18.2865 0.0123527 17.7607 -0.0954517 17.3005 0.0887646L0.778903 6.69742C0.282428 6.89568 -0.0306594 7.3905 0.00238386 7.92415C0.0350141 8.4578 0.406752 8.91008 0.92388 9.04597L8.07238 10.9274ZM8.87038 10.7134L10.7526 17.8661C10.798 18.0383 10.9488 18.1622 11.1264 18.1729C11.3044 18.1841 11.4692 18.0796 11.5357 17.914L18.1444 1.39232C18.2055 1.23909 18.1696 1.06396 18.0527 0.947065C17.9358 0.830174 17.7607 0.794236 17.6074 0.85578L1.08579 7.46444C0.920161 7.53052 0.815663 7.69533 0.826815 7.87335C0.837554 8.05096 0.961467 8.20172 1.13412 8.24716L8.28634 10.1294L13.3382 5.07748C13.4993 4.91639 13.7612 4.91639 13.9223 5.07748C14.0834 5.23856 14.0834 5.50043 13.9223 5.66152L8.87038 10.7134Z" fill="black"/>
</svg>
